<svg width="1920" height="907" xmlns="http://www.w3.org/2000/svg" fill="none">

 <g>
  <title>Layer 1</title>
  <rect stroke="null" id="svg_1" fill="white" height="907" width="1923"/>
  <g stroke="null" id="svg_2" opacity="0.04">
   <path stroke="null" id="svg_3" fill="#111111" d="m1214.96053,908l640.60439,-907l65.34165,0l0,99.897l-570.04782,807.103l-135.89821,0z" opacity="0.56"/>
   <path stroke="null" id="svg_4" fill="#111111" d="m1392.89441,908l528.01216,-747.586l0,94.872l-461.00494,652.714l-67.00722,0z" opacity="0.56"/>
   <path stroke="null" id="svg_5" fill="#111111" d="m949.08369,908l640.60439,-907l220.39293,0l-640.60439,907l-220.39293,0z" opacity="0.56"/>
   <path stroke="null" id="svg_6" fill="#111111" d="m191.96538,908l640.60439,-907l135.89922,0l-640.60539,907l-135.89821,0z" opacity="0.56"/>
   <path stroke="null" id="svg_7" fill="#111111" d="m-0.90659,644.934l454.79909,-643.934l67.01322,0l-521.81231,738.806l0,-94.872z" opacity="0.56"/>
   <path stroke="null" id="svg_8" fill="#111111" d="m-0.90659,908l0,-103.362l567.60551,-803.638l220.39794,0l-640.60439,907l-147.39907,0z" opacity="0.56"/>
   <path stroke="null" id="svg_9" fill="#111111" d="m517.21224,908l640.60639,-907l107.92883,0l-640.60338,907l-107.93183,0z" opacity="0.23"/>
   <path stroke="null" id="svg_10" fill="#111111" d="m841.44814,908l-176.41644,0l640.60038,-907l176.42245,0l-640.60639,907z" opacity="0.23"/>
  </g>
 </g>
</svg>