<svg width="1009" height="995" xmlns="http://www.w3.org/2000/svg" fill="none">

 <g>
  <title>Layer 1</title>
  <g stroke="null" id="svg_1" opacity="0.06">
   <path stroke="null" id="svg_2" fill="#7166F0" d="m3.61603,864.032l0,-78.586l74.03642,-42.791l0,84.132l68.95411,39.865l0,-82.656l72.76559,42.053l70.22493,-40.577l0,-77.136c-2.13435,-0.56 -3.70866,-2.493 -3.70866,-4.809c0,-0.458 0.07587,-0.89 0.20265,-1.297l-67.32889,-38.924l-0.63491,-0.356l0,-85.582l72.74063,42.053l71.49476,-41.341l71.49576,41.316l70.22493,-40.604l0,-81.18l-72.76559,-42.054l72.76559,-42.053l0,-84.132l73.40051,42.435l0.63491,0.356l0,81.181l65.42314,-37.83c-0.10183,-0.407 -0.20365,-0.84 -0.20365,-1.298c0,-2.315 1.57531,-4.248 3.70966,-4.808l0,-159.767l-70.85985,-40.959l-0.63491,-0.356l0,-85.557l73.32464,42.41l0.63491,0.356l0,82.656l70.22493,40.603l68.92915,-39.839l-69.59002,-40.222l-0.63491,-0.356l0,-85.608l73.40051,42.41l0.63491,0.356l0,163.837l65.42314,-37.83c-0.10183,-0.407 -0.20265,-0.84 -0.20265,-1.297c0,-2.316 1.57531,-4.249 3.70866,-4.809l0,-78.535l70.22533,-40.603l-68.95451,-39.865l-1.27083,0.738l0,-1.476l-1.26983,-0.738l1.26983,-0.738l0,-82.6305l67.98956,-39.30568c-0.10163,-0.40705 -0.20325,-0.83954 -0.20325,-1.29747c0,-2.74758 2.23578,-4.98635 4.97979,-4.98635c2.74391,0 4.97979,2.23877 4.97979,4.98635c0,2.31509 -1.57531,4.24857 -3.70946,4.80827l0,77.11038l72.76559,42.079l-71.49526,41.315l69.58974,40.222l0.63517,0.381l0,82.657l1.27035,0.712l-1.27035,0.738l0,82.656l-70.1741,40.578l69.61515,40.247l0.63517,0.356l0,85.582l-73.40073,-42.435l-0.63521,-0.356l0,-81.206l-0.05081,0.025l0,-84.132l-66.66842,-38.542c-0.60896,0.61 -1.39661,1.068 -2.26113,1.297l0,78.586l-70.22493,40.578l69.59002,40.221l0.63491,0.357l0,82.681l66.59215,38.543c0.91464,-0.916 2.15951,-1.476 3.53156,-1.476c2.74391,0 4.97969,2.239 4.97969,4.987c0,2.315 -1.57521,4.248 -3.70936,4.808l0,159.665l70.9617,41.035l0.63517,0.357l0,85.582l-0.10163,-0.077l0,81.258l-71.49524,41.315l0,1.476l-1.27033,-0.738l-1.27043,0.738l0,-1.476l-70.83489,-40.934l-0.63491,-0.356l0,-85.582l69.20867,40.018c0.91464,-0.916 2.15951,-1.476 3.53156,-1.476c1.39731,0 2.64228,0.56 3.53156,1.476l65.47378,-37.881l-67.73501,-39.153l0,0.076l-72.76569,-42.053l-72.76559,42.053l0,-84.157l-70.78398,-40.934l-0.63491,-0.356l0,-78.586c-2.13435,-0.56 -3.70966,-2.493 -3.70966,-4.808c0,-2.748 2.23618,-4.987 4.97949,-4.987c2.74431,0 4.98048,2.239 4.98048,4.987c0,0.458 -0.07687,0.89 -0.20365,1.297l67.32889,38.924l0.63491,0.356l0,81.156l68.87824,-39.815l0,-163.862l-70.14906,-40.553l-72.71468,42.079l0,-84.106l-66.66802,-38.543c-0.60896,0.611 -1.39661,1.069 -2.26113,1.298l0,78.585l-67.9628,39.281c0.10083,0.407 0.20265,0.839 0.20265,1.297c0,0.458 -0.07587,0.891 -0.20265,1.298l67.32789,38.924l0.63491,0.356l0,165.211l66.26171,38.313c0.91444,-1.272 2.38792,-2.111 4.06505,-2.111c2.74431,0 4.97949,2.239 4.97949,4.986c0,2.315 -1.57431,4.249 -3.70866,4.808l0,80.978l-71.49576,-41.316l0,81.181l-74.03542,42.791l0,-85.582l70.14807,-40.552l-68.98006,-39.891l-66.69297,38.542c0.10183,0.407 0.20365,0.84 0.20365,1.298c0,2.747 -2.23618,4.986 -4.98048,4.986c-2.74331,0 -4.97949,-2.239 -4.97949,-4.986c0,-2.315 1.57531,-4.249 3.70966,-4.808l0,-159.742l-70.22493,-40.603l-68.95511,39.866l69.59002,40.221l0.63491,0.356l0,82.657l1.27083,0.737l-1.27083,0.738l0,81.181l70.86085,40.959l0.63491,0.356l0,85.583l-73.40051,-42.435l-0.63591,-0.356l0,-81.181l-68.95411,39.865l0,1.476l-1.27083,-0.738l-72.76559,42.053l0,-80.036c-0.86352,-0.229 -1.65118,-0.687 -2.26113,-1.297l-66.69297,38.567l0,84.107l-71.49576,-41.315l0,0.025l-73.40051,-42.435l-0.63491,-0.356l0,-81.181l-65.42314,37.83c0.10183,0.407 0.20365,0.84 0.20365,1.298c0,2.747 -2.23218,4.986 -4.97749,4.986c-2.74531,0 -4.98148,-2.239 -4.98148,-4.986c0,-2.341 1.59727,-4.274 3.73362,-4.834zm786.32061,-696.995l-68.95411,-39.865l0,79.705l68.95411,39.865l0,-79.705zm145.58239,329.124l68.92919,39.866l0,-79.705l-68.95455,-39.866l0,79.705l0.02536,0zm-71.59689,374.842l0,79.705l68.95461,39.865l0,-75.634c-2.13415,-0.56 -3.70946,-2.494 -3.70946,-4.809c0,-0.458 0.07627,-0.89 0.20325,-1.297l-65.4484,-37.83zm71.46991,43.936l0,75.634l68.95455,-39.84l0,-79.705l-65.42298,37.83c0.10163,0.407 0.20325,0.84 0.20325,1.298c0,2.289 -1.60066,4.223 -3.73481,4.783zm-786.26979,-46.862l68.92915,39.865l0,-79.705l-68.95511,-39.865l0,79.705l0.02596,0zm142.96457,-4.045c0.86452,0.229 1.65218,0.661 2.26113,1.297l65.39819,-37.804l-67.68428,-39.128l0,75.635l0.02496,0zm68.95511,-119.901l0,-79.706l-65.42314,37.83c0.10183,0.407 0.20365,0.84 0.20365,1.298c0,2.315 -1.57531,4.249 -3.70966,4.808l0,75.635l68.92915,-39.865zm-68.95511,-45.412c0.86452,0.229 1.65218,0.687 2.26113,1.298l65.39819,-37.805l-67.68428,-39.128l0,75.635l0.02496,0zm70.22493,47.599l-68.95411,39.866l31.32644,18.114l37.62767,21.751l68.95511,-39.865l-31.32744,-18.114l-37.62767,-21.752zm-1.26983,83.395l-65.42314,37.83c0.10183,0.407 0.20365,0.839 0.20365,1.297c0,0.458 -0.07687,0.891 -0.20365,1.298l65.42314,37.83l0,-78.255l0,0zm-140.44987,-168.239l66.66802,38.543c0.60996,-0.611 1.39761,-1.069 2.26113,-1.298l0,-77.11l-68.92915,-39.84l0,79.705zm354.88425,-128.042l0,-75.635l-68.95411,39.865l0,79.706l65.42314,-37.83c-0.10183,-0.407 -0.20365,-0.84 -0.20365,-1.298c0.02596,-2.315 1.60126,-4.248 3.73461,-4.808zm0,9.616c-0.86352,-0.229 -1.65118,-0.686 -2.26113,-1.297l-65.39719,37.805l67.65832,39.127l0,-75.635zm-70.19898,-47.624l68.95411,-39.866l-33.81618,-19.538l-35.13792,-20.302l-68.95511,39.866l68.95511,39.84zm70.19898,-121.759l-68.95411,-39.865l0,79.705l68.95411,39.865l0,-79.705zm71.49576,-206.628l-68.95511,-39.865l0,79.705l68.95511,39.865l0,-79.705zm2.54066,163.837l22.56143,13.051l46.39268,26.814l0,-79.705l-68.95411,-39.865l0,79.705zm71.49476,122.496l34.47805,-19.92l34.47705,-19.92l0,-79.705l-34.47705,19.92l-34.47805,19.92l0,79.705l0,0zm68.92915,-202.201l-68.95411,39.865l0,79.705l34.47705,-19.919l34.47705,-19.92l0,-79.731zm74.03642,34.294c0.86352,0.229 1.65118,0.661 2.26113,1.297l66.66792,-38.542l0,-79.706l-68.95401,39.866l0,77.085l0.02496,0zm0,-242.398l0,79.705l68.92905,-39.865l0,-77.11038c-0.86382,-0.22897 -1.65138,-0.66146 -2.26113,-1.29747l-66.66792,38.56785zm70.19948,42.0533l-68.92965,39.8657l67.65922,39.102l1.27043,0.738l1.27033,-0.738l67.6842,-39.102l-68.95453,-39.8657zm70.22487,123.2337l-68.95455,-39.865l0,79.705l68.95455,39.891l0,-79.731zm0,84.132l-68.95455,39.866l0,79.705l68.95455,-39.865l0,-79.706zm-70.22487,37.652l68.95453,-39.865l-31.32686,-18.114l-37.62767,-21.751l-66.69347,38.542c0.10183,0.407 0.20365,0.84 0.20365,1.298c0,0.457 -0.07687,0.89 -0.20365,1.297l66.69347,38.593zm-72.74013,-35.057c-0.86352,-0.229 -1.65118,-0.661 -2.26113,-1.297l-66.66802,38.542l0,79.706l68.95411,-39.866l0,-77.085l-0.02496,0zm0,161.243l-68.95511,-39.866l0,79.705l68.95511,39.866l0,-79.705l0,0zm71.41889,128.042c-2.13415,-0.56 -3.70936,-2.493 -3.70936,-4.808c0,-0.458 0.07617,-0.891 0.20325,-1.298l-65.42304,-37.83l0,79.705l68.92915,39.866l0,-75.635zm-68.92915,118.426l68.95461,39.865l0,-79.705l-68.95461,-39.866l0,79.706zm71.59689,123.946l68.92919,39.865l0,-79.705l-68.95455,-39.865l0,79.705l0.02536,0zm-2.66774,-81.155l-68.95411,-39.866l0,79.706l68.95411,39.865l0,-79.705l0,0zm-142.91466,-82.631l-66.66702,-38.568c-0.60996,0.61 -1.39761,1.068 -2.26213,1.297l0,77.111l68.95511,39.865l0,-79.705l-0.02596,0zm2.49074,84.081l0,78.28l68.95411,-39.865l0,-79.705l-68.87824,39.814l0,1.501l-0.07587,-0.025zm-71.41989,-211.004l68.92915,-39.866l0,-79.705l-34.47705,19.92l-34.47705,19.92l0,79.731l0.02496,0zm-2.54066,-82.657l0,-79.705l-39.40563,-22.769l-29.54848,-17.071l0,75.635c2.13435,0.56 3.70966,2.493 3.70966,4.808c0,0.458 -0.07687,0.891 -0.20365,1.298l65.4481,37.804zm-71.49476,42.791l0,-77.11c-0.86352,-0.229 -1.65118,-0.661 -2.26113,-1.297l-66.66802,38.542l0,77.11c0.86352,0.229 1.65118,0.662 2.26113,1.298l66.66802,-38.543zm0,84.132l-66.66802,-38.542c-0.60996,0.611 -1.39761,1.068 -2.26113,1.297l0,77.111l1.26983,0.738l67.65932,39.102l0,-79.706zm0,165.288l-68.95511,-39.866l0,79.706l68.95511,39.865l0,-79.705zm-68.95511,-42.791l68.95511,39.865l0,-79.705l-68.95511,-39.866l0,79.706zm140.5517,163.811l0,-76.55c-2.13435,-0.56 -3.70966,-2.493 -3.70966,-4.808c0,-0.153 0.02596,-0.306 0.05091,-0.458l-65.27041,-37.729l0,79.706l68.92915,39.839zm-140.42391,82.657l68.95411,-39.866l0,-79.705l-68.95411,39.866l0,79.705l0,0zm-71.59759,-126.567c0.86452,0.229 1.65218,0.661 2.26113,1.298l66.66802,-38.543l0,-79.705l-68.95411,39.865l0,77.085l0.02496,0zm68.92915,-119.901l0,-79.706l-68.95411,39.866l0,79.705l68.95411,-39.865zm-70.19898,-42.054l68.95411,-39.865l-68.92915,-39.865l-1.26983,0.738l-67.68428,39.127l68.92915,39.865zm-142.96557,-79.73l-68.95411,39.865l67.68428,39.128l1.26983,0.737l1.27083,-0.737l67.68428,-39.128l-68.95511,-39.865zm70.19998,123.259l-68.95511,-39.865l0,79.705l68.95511,39.866l0,-79.706l0,0zm2.54066,246.494l68.95411,39.865l0,-79.705l-68.95411,-39.865l0,79.705l0,0zm-2.54066,-82.657l0,-79.705l-68.95511,39.866l0,79.705l68.95511,-39.866zm-72.74063,42.054l-65.39719,-37.805c-0.60996,0.611 -1.39761,1.069 -2.26113,1.298l0,75.634l67.65832,-39.127zm-70.22493,-46.124l0,-75.635l-68.95411,39.84l0,79.705l65.42314,-37.83c-0.10183,-0.407 -0.20365,-0.839 -0.20365,-1.297c0.02596,-2.29 1.60126,-4.223 3.73461,-4.783zm-71.49476,126.541l0,-79.68l-68.95511,-39.865l0,79.705l68.95511,39.84zm-140.42491,-81.155l68.95511,39.865l0,-79.705l-68.95511,-39.865l0,79.705zm-2.54066,-82.656l0,-79.706l-68.95411,39.866l0,77.11c0.86852,0.229 1.64718,0.661 2.26113,1.297l66.69297,-38.567z"/>
  </g>
 </g>
</svg>