<svg width="1920.0000000000002" height="605" xmlns="http://www.w3.org/2000/svg" fill="none">
 <g>
  <title>Layer 1</title>
  <rect x="1.96087" width="1920" height="605" fill="#F7F7FD" id="svg_1" stroke="null"/>
  <g stroke="null" opacity="0.8" id="svg_2">
   <g stroke="null" opacity="0.32" id="svg_3">
    <path stroke="null" d="m138.25228,430.392c0.68169,0.677 0.68169,1.79 0,2.467c-0.66193,0.678 -1.76844,0.678 -2.43037,0c-0.68169,-0.677 -0.68169,-1.79 0,-2.467c0.66193,-0.687 1.75856,-0.687 2.43037,0z" fill="#7166F0" id="svg_4"/>
    <path stroke="null" d="m131.58358,437.127c0.67181,0.677 0.67181,1.79 0,2.467c-0.67181,0.687 -1.76844,0.687 -2.43037,0c-0.68169,-0.677 -0.68169,-1.79 0,-2.467c0.66193,-0.678 1.76844,-0.678 2.43037,0z" fill="#7166F0" id="svg_5"/>
    <path stroke="null" d="m123.6997,446.852c-0.94844,0 -1.71904,-0.78 -1.71904,-1.742c0,-0.962 0.77061,-1.742 1.71904,-1.742c0.95832,0 1.72892,0.78 1.72892,1.742c0,0.962 -0.77061,1.742 -1.72892,1.742z" fill="#7166F0" id="svg_6"/>
    <path stroke="null" d="m118.25607,450.616c0.68169,0.677 0.68169,1.79 0,2.468c-0.67181,0.677 -1.76844,0.677 -2.43037,0c-0.68169,-0.678 -0.68169,-1.791 0,-2.468c0.66193,-0.687 1.75856,-0.687 2.43037,0z" fill="#7166F0" id="svg_7"/>
    <path stroke="null" d="m111.58737,457.351c0.67181,0.678 0.67181,1.791 0,2.468c-0.67181,0.677 -1.76844,0.677 -2.44025,0c-0.66193,-0.687 -0.66193,-1.79 0,-2.468c0.67181,-0.677 1.77832,-0.677 2.44025,0z" fill="#7166F0" id="svg_8"/>
    <path stroke="null" d="m104.92855,464.096c0.67181,0.678 0.67181,1.79 0,2.468c-0.67181,0.677 -1.76844,0.677 -2.44025,0c-0.68169,-0.678 -0.68169,-1.79 0,-2.468c0.67181,-0.677 1.76844,-0.677 2.44025,0z" fill="#7166F0" id="svg_9"/>
    <path stroke="null" d="m98.26973,470.841c0.68169,0.677 0.68169,1.79 0,2.468c-0.68169,0.677 -1.76844,0.677 -2.44025,0c-0.68169,-0.678 -0.68169,-1.791 0,-2.468c0.67181,-0.687 1.75856,-0.687 2.44025,0z" fill="#7166F0" id="svg_10"/>
    <path stroke="null" d="m91.60103,477.586c0.67181,0.687 0.67181,1.79 0,2.467c-0.68169,0.678 -1.76844,0.678 -2.44025,0c-0.67181,-0.677 -0.67181,-1.79 0,-2.467c0.67181,-0.687 1.75856,-0.687 2.44025,0z" fill="#7166F0" id="svg_11"/>
    <path stroke="null" d="m84.93233,484.321c0.67181,0.677 0.67181,1.79 0,2.467c-0.67181,0.678 -1.77832,0.678 -2.44025,0c-0.68169,-0.687 -0.68169,-1.79 0,-2.467c0.66193,-0.678 1.76844,-0.678 2.44025,0z" fill="#7166F0" id="svg_12"/>
    <path stroke="null" d="m78.26363,491.065c0.67181,0.678 0.67181,1.791 0,2.468c-0.68169,0.687 -1.76844,0.687 -2.44025,0c-0.68169,-0.677 -0.68169,-1.79 0,-2.468c0.68169,-0.677 1.76844,-0.677 2.44025,0z" fill="#7166F0" id="svg_13"/>
    <path stroke="null" d="m70.37975,500.781c-0.94844,0 -1.71904,-0.78 -1.71904,-1.742c0,-0.962 0.77061,-1.742 1.71904,-1.742c0.94844,0 1.71904,0.78 1.71904,1.742c0,0.962 -0.77061,1.742 -1.71904,1.742z" fill="#7166F0" id="svg_14"/>
    <path stroke="null" d="m64.93612,504.545c0.68169,0.678 0.68169,1.79 0,2.468c-0.68169,0.677 -1.76844,0.677 -2.44025,0c-0.68169,-0.678 -0.68169,-1.79 0,-2.468c0.67181,-0.677 1.75856,-0.677 2.44025,0z" fill="#7166F0" id="svg_15"/>
    <path stroke="null" d="m139.92193,438.811c0.67181,0.687 0.67181,1.79 0,2.467c-0.68169,0.677 -1.76844,0.677 -2.44025,0c-0.67181,-0.687 -0.67181,-1.79 0,-2.467c0.67181,-0.678 1.76844,-0.678 2.44025,0z" fill="#7166F0" id="svg_16"/>
    <path stroke="null" d="m133.25323,445.555c0.68169,0.677 0.68169,1.79 0,2.467c-0.67181,0.688 -1.76844,0.688 -2.44025,0c-0.68169,-0.677 -0.68169,-1.79 0,-2.467c0.68169,-0.677 1.76844,-0.677 2.44025,0z" fill="#7166F0" id="svg_17"/>
    <path stroke="null" d="m126.59441,452.3c0.68169,0.677 0.68169,1.79 0,2.468c-0.68169,0.677 -1.76844,0.677 -2.44025,0c-0.68169,-0.678 -0.68169,-1.791 0,-2.468c0.67181,-0.687 1.75856,-0.687 2.44025,0z" fill="#7166F0" id="svg_18"/>
    <path stroke="null" d="m119.92571,459.045c0.67181,0.677 0.67181,1.79 0,2.467c-0.68169,0.678 -1.76844,0.678 -2.44025,0c-0.67181,-0.677 -0.67181,-1.79 0,-2.467c0.67181,-0.687 1.75856,-0.687 2.44025,0z" fill="#7166F0" id="svg_19"/>
    <path stroke="null" d="m113.25701,465.78c0.68169,0.677 0.68169,1.79 0,2.467c-0.67181,0.678 -1.76844,0.678 -2.44025,0c-0.68169,-0.687 -0.68169,-1.79 0,-2.467c0.67181,-0.678 1.76844,-0.678 2.44025,0z" fill="#7166F0" id="svg_20"/>
    <path stroke="null" d="m106.58831,472.525c0.67181,0.677 0.67181,1.79 0,2.467c-0.68169,0.687 -1.76844,0.687 -2.44025,0c-0.68169,-0.677 -0.68169,-1.79 0,-2.467c0.68169,-0.678 1.76844,-0.678 2.44025,0z" fill="#7166F0" id="svg_21"/>
    <path stroke="null" d="m99.92949,479.269c0.67181,0.678 0.67181,1.79 0,2.468c-0.68169,0.677 -1.76844,0.677 -2.44025,0c-0.67181,-0.678 -0.67181,-1.79 0,-2.468c0.67181,-0.687 1.75856,-0.687 2.44025,0z" fill="#7166F0" id="svg_22"/>
    <path stroke="null" d="m93.2608,486.004c0.68169,0.678 0.68169,1.791 0,2.468c-0.67181,0.677 -1.76844,0.677 -2.44025,0c-0.68169,-0.677 -0.68169,-1.79 0,-2.468c0.67181,-0.677 1.76844,-0.677 2.44025,0z" fill="#7166F0" id="svg_23"/>
    <path stroke="null" d="m86.5921,492.749c0.67181,0.677 0.67181,1.79 0,2.468c-0.67181,0.677 -1.76844,0.677 -2.44025,0c-0.67181,-0.687 -0.67181,-1.791 0,-2.468c0.68169,-0.677 1.77832,-0.677 2.44025,0z" fill="#7166F0" id="svg_24"/>
    <path stroke="null" d="m79.93328,499.494c0.68169,0.677 0.68169,1.79 0,2.467c-0.66193,0.678 -1.76844,0.678 -2.44025,0c-0.66193,-0.677 -0.66193,-1.79 0,-2.467c0.67181,-0.687 1.76844,-0.687 2.44025,0z" fill="#7166F0" id="svg_25"/>
    <path stroke="null" d="m73.26458,506.238c0.68169,0.678 0.68169,1.791 0,2.468c-0.67181,0.677 -1.76844,0.677 -2.44025,0c-0.67181,-0.677 -0.67181,-1.79 0,-2.468c0.67181,-0.687 1.76844,-0.687 2.44025,0z" fill="#7166F0" id="svg_26"/>
    <path stroke="null" d="m148.25039,440.504c0.67181,0.687 0.67181,1.79 0,2.468c-0.68169,0.677 -1.76844,0.677 -2.44025,0c-0.67181,-0.678 -0.67181,-1.791 0,-2.468c0.67181,-0.687 1.75856,-0.687 2.44025,0z" fill="#7166F0" id="svg_27"/>
    <path stroke="null" d="m141.58169,447.239c0.68169,0.677 0.68169,1.79 0,2.468c-0.67181,0.687 -1.76844,0.687 -2.44025,0c-0.67181,-0.678 -0.67181,-1.791 0,-2.468c0.68169,-0.677 1.76844,-0.677 2.44025,0z" fill="#7166F0" id="svg_28"/>
    <path stroke="null" d="m134.93275,453.984c0.66193,0.677 0.66193,1.79 0,2.467c-0.68169,0.687 -1.77832,0.687 -2.44025,0c-0.68169,-0.677 -0.68169,-1.79 0,-2.467c0.66193,-0.678 1.75856,-0.678 2.44025,0z" fill="#7166F0" id="svg_29"/>
    <path stroke="null" d="m128.26405,460.729c0.66193,0.677 0.66193,1.79 0,2.467c-0.68169,0.678 -1.77832,0.678 -2.44025,0c-0.67181,-0.677 -0.67181,-1.79 0,-2.467c0.66193,-0.687 1.75856,-0.687 2.44025,0z" fill="#7166F0" id="svg_30"/>
    <path stroke="null" d="m121.58548,467.473c0.68169,0.687 0.68169,1.791 0,2.468c-0.67181,0.677 -1.76844,0.677 -2.44025,0c-0.68169,-0.677 -0.68169,-1.79 0,-2.468c0.67181,-0.687 1.76844,-0.687 2.44025,0z" fill="#7166F0" id="svg_31"/>
    <path stroke="null" d="m114.92666,474.208c0.66193,0.687 0.66193,1.79 0,2.468c-0.68169,0.687 -1.76844,0.687 -2.44025,0c-0.68169,-0.678 -0.68169,-1.79 0,-2.468c0.68169,-0.677 1.76844,-0.677 2.44025,0z" fill="#7166F0" id="svg_32"/>
    <path stroke="null" d="m108.26784,480.953c0.67181,0.677 0.67181,1.79 0,2.468c-0.67181,0.687 -1.77832,0.687 -2.44025,0c-0.67181,-0.678 -0.67181,-1.791 0,-2.468c0.66193,-0.677 1.75856,-0.677 2.44025,0z" fill="#7166F0" id="svg_33"/>
    <path stroke="null" d="m101.59914,487.698c0.67181,0.677 0.67181,1.79 0,2.467c-0.67181,0.678 -1.76844,0.678 -2.44025,0c-0.68169,-0.677 -0.68169,-1.79 0,-2.467c0.67181,-0.687 1.76844,-0.687 2.44025,0z" fill="#7166F0" id="svg_34"/>
    <path stroke="null" d="m94.93044,494.433c0.66193,0.687 0.66193,1.79 0,2.467c-0.68169,0.678 -1.76844,0.678 -2.44025,0c-0.68169,-0.677 -0.68169,-1.79 0,-2.467c0.67181,-0.678 1.76844,-0.678 2.44025,0z" fill="#7166F0" id="svg_35"/>
    <path stroke="null" d="m88.26174,501.178c0.67181,0.677 0.67181,1.79 0,2.467c-0.67181,0.687 -1.76844,0.687 -2.44025,0c-0.67181,-0.677 -0.67181,-1.79 0,-2.467c0.68169,-0.678 1.76844,-0.678 2.44025,0z" fill="#7166F0" id="svg_36"/>
    <path stroke="null" d="m81.60292,507.922c0.67181,0.678 0.67181,1.79 0,2.468c-0.68169,0.677 -1.76844,0.677 -2.44025,0c-0.68169,-0.678 -0.68169,-1.79 0,-2.468c0.67181,-0.687 1.75856,-0.687 2.44025,0z" fill="#7166F0" id="svg_37"/>
    <path stroke="null" d="m74.93422,514.667c0.67181,0.678 0.67181,1.79 0,2.468c-0.68169,0.677 -1.76844,0.677 -2.44025,0c-0.67181,-0.678 -0.67181,-1.79 0,-2.468c0.67181,-0.687 1.76844,-0.687 2.44025,0z" fill="#7166F0" id="svg_38"/>
    <path stroke="null" d="m149.92003,448.932c0.67181,0.687 0.67181,1.79 0,2.468c-0.67181,0.677 -1.77832,0.677 -2.44025,0c-0.68169,-0.687 -0.68169,-1.79 0,-2.468c0.66193,-0.687 1.76844,-0.687 2.44025,0z" fill="#7166F0" id="svg_39"/>
    <path stroke="null" d="m143.25134,455.667c0.67181,0.678 0.67181,1.79 0,2.468c-0.68169,0.687 -1.76844,0.687 -2.44025,0c-0.68169,-0.678 -0.68169,-1.79 0,-2.468c0.68169,-0.677 1.76844,-0.677 2.44025,0z" fill="#7166F0" id="svg_40"/>
    <path stroke="null" d="m136.59252,462.412c0.67181,0.678 0.67181,1.791 0,2.468c-0.68169,0.687 -1.76844,0.687 -2.44025,0c-0.67181,-0.677 -0.67181,-1.79 0,-2.468c0.67181,-0.677 1.75856,-0.677 2.44025,0z" fill="#7166F0" id="svg_41"/>
    <path stroke="null" d="m129.92382,469.157c0.67181,0.677 0.67181,1.79 0,2.467c-0.67181,0.678 -1.77832,0.678 -2.44025,0c-0.68169,-0.677 -0.68169,-1.79 0,-2.467c0.66193,-0.687 1.76844,-0.687 2.44025,0z" fill="#7166F0" id="svg_42"/>
    <path stroke="null" d="m122.03993,478.873c-0.94844,0 -1.71904,-0.78 -1.71904,-1.742c0,-0.962 0.77061,-1.742 1.71904,-1.742c0.94844,0 1.71904,0.78 1.71904,1.742c0,0.962 -0.77061,1.742 -1.71904,1.742z" fill="#7166F0" id="svg_43"/>
    <path stroke="null" d="m116.5963,482.637c0.68169,0.677 0.68169,1.79 0,2.468c-0.67181,0.677 -1.76844,0.677 -2.44025,0c-0.67181,-0.688 -0.67181,-1.791 0,-2.468c0.67181,-0.677 1.75856,-0.677 2.44025,0z" fill="#7166F0" id="svg_44"/>
    <path stroke="null" d="m109.9276,489.382c0.68169,0.677 0.68169,1.79 0,2.467c-0.68169,0.677 -1.76844,0.677 -2.44025,0c-0.68169,-0.677 -0.68169,-1.79 0,-2.467c0.67181,-0.688 1.75856,-0.688 2.44025,0z" fill="#7166F0" id="svg_45"/>
    <path stroke="null" d="m103.2589,496.126c0.67181,0.678 0.67181,1.791 0,2.468c-0.68169,0.677 -1.76844,0.677 -2.44025,0c-0.67181,-0.677 -0.67181,-1.79 0,-2.468c0.67181,-0.687 1.76844,-0.687 2.44025,0z" fill="#7166F0" id="svg_46"/>
    <path stroke="null" d="m95.37502,505.842c-0.94844,0 -1.71904,-0.78 -1.71904,-1.742c0,-0.962 0.77061,-1.742 1.71904,-1.742c0.94844,0 1.71904,0.78 1.71904,1.742c0,0.962 -0.77061,1.742 -1.71904,1.742z" fill="#7166F0" id="svg_47"/>
    <path stroke="null" d="m89.93139,509.606c0.68169,0.677 0.68169,1.79 0,2.468c-0.67181,0.687 -1.76844,0.687 -2.44025,0c-0.68169,-0.678 -0.68169,-1.791 0,-2.468c0.67181,-0.677 1.75856,-0.677 2.44025,0z" fill="#7166F0" id="svg_48"/>
    <path stroke="null" d="m83.27257,516.351c0.66193,0.677 0.66193,1.79 0,2.467c-0.68169,0.678 -1.77832,0.678 -2.44025,0c-0.67181,-0.677 -0.67181,-1.79 0,-2.467c0.66193,-0.687 1.75856,-0.687 2.44025,0z" fill="#7166F0" id="svg_49"/>
    <path stroke="null" d="m158.25838,450.616c0.67181,0.678 0.67181,1.791 0,2.468c-0.67181,0.677 -1.77832,0.677 -2.44025,0c-0.68169,-0.677 -0.68169,-1.79 0,-2.468c0.66193,-0.687 1.76844,-0.687 2.44025,0z" fill="#7166F0" id="svg_50"/>
    <path stroke="null" d="m151.5798,457.351c0.67181,0.678 0.67181,1.791 0,2.468c-0.67181,0.677 -1.76844,0.677 -2.43037,0c-0.68169,-0.687 -0.68169,-1.79 0,-2.468c0.67181,-0.677 1.76844,-0.677 2.43037,0z" fill="#7166F0" id="svg_51"/>
    <path stroke="null" d="m144.92098,464.096c0.68169,0.677 0.68169,1.79 0,2.468c-0.66193,0.677 -1.76844,0.677 -2.43037,0c-0.67181,-0.678 -0.67181,-1.791 0,-2.468c0.66193,-0.677 1.75856,-0.677 2.43037,0z" fill="#7166F0" id="svg_52"/>
    <path stroke="null" d="m138.25228,470.841c0.68169,0.677 0.68169,1.79 0,2.467c-0.66193,0.678 -1.76844,0.678 -2.43037,0c-0.68169,-0.677 -0.68169,-1.79 0,-2.467c0.66193,-0.687 1.75856,-0.687 2.43037,0z" fill="#7166F0" id="svg_53"/>
    <path stroke="null" d="m131.58358,477.586c0.67181,0.687 0.67181,1.79 0,2.467c-0.67181,0.678 -1.76844,0.678 -2.43037,0c-0.68169,-0.677 -0.68169,-1.79 0,-2.467c0.66193,-0.687 1.76844,-0.687 2.43037,0z" fill="#7166F0" id="svg_54"/>
    <path stroke="null" d="m124.92476,484.321c0.67181,0.677 0.67181,1.79 0,2.467c-0.67181,0.678 -1.76844,0.678 -2.44025,0c-0.67181,-0.687 -0.67181,-1.79 0,-2.467c0.68169,-0.678 1.76844,-0.678 2.44025,0z" fill="#7166F0" id="svg_55"/>
    <path stroke="null" d="m118.25607,491.065c0.68169,0.678 0.68169,1.791 0,2.468c-0.67181,0.687 -1.76844,0.687 -2.43037,0c-0.68169,-0.677 -0.68169,-1.79 0,-2.468c0.66193,-0.677 1.75856,-0.677 2.43037,0z" fill="#7166F0" id="svg_56"/>
    <path stroke="null" d="m111.58737,497.81c0.67181,0.677 0.67181,1.79 0,2.468c-0.67181,0.677 -1.76844,0.677 -2.44025,0c-0.66193,-0.678 -0.66193,-1.791 0,-2.468c0.67181,-0.687 1.77832,-0.687 2.44025,0z" fill="#7166F0" id="svg_57"/>
    <path stroke="null" d="m104.92855,504.545c0.67181,0.678 0.67181,1.79 0,2.468c-0.67181,0.677 -1.76844,0.677 -2.44025,0c-0.68169,-0.678 -0.68169,-1.79 0,-2.468c0.67181,-0.677 1.76844,-0.677 2.44025,0z" fill="#7166F0" id="svg_58"/>
    <path stroke="null" d="m98.26973,511.29c0.68169,0.677 0.68169,1.79 0,2.468c-0.68169,0.677 -1.76844,0.677 -2.44025,0c-0.68169,-0.687 -0.68169,-1.791 0,-2.468c0.67181,-0.677 1.75856,-0.677 2.44025,0z" fill="#7166F0" id="svg_59"/>
    <path stroke="null" d="m91.60103,518.035c0.67181,0.677 0.67181,1.79 0,2.467c-0.68169,0.687 -1.76844,0.687 -2.44025,0c-0.67181,-0.677 -0.67181,-1.79 0,-2.467c0.67181,-0.687 1.75856,-0.687 2.44025,0z" fill="#7166F0" id="svg_60"/>
    <path stroke="null" d="m84.93233,524.779c0.68169,0.678 0.68169,1.79 0,2.468c-0.67181,0.677 -1.76844,0.677 -2.44025,0c-0.68169,-0.678 -0.68169,-1.79 0,-2.468c0.67181,-0.687 1.76844,-0.687 2.44025,0z" fill="#7166F0" id="svg_61"/>
    <path stroke="null" d="m159.91814,459.045c0.67181,0.677 0.67181,1.79 0,2.467c-0.68169,0.678 -1.76844,0.678 -2.44025,0c-0.68169,-0.677 -0.68169,-1.79 0,-2.467c0.67181,-0.687 1.76844,-0.687 2.44025,0z" fill="#7166F0" id="svg_62"/>
    <path stroke="null" d="m153.24944,465.78c0.68169,0.677 0.68169,1.79 0,2.467c-0.67181,0.677 -1.76844,0.677 -2.44025,0c-0.67181,-0.687 -0.67181,-1.79 0,-2.467c0.68169,-0.678 1.76844,-0.678 2.44025,0z" fill="#7166F0" id="svg_63"/>
    <path stroke="null" d="m146.59063,472.524c0.68169,0.678 0.68169,1.791 0,2.468c-0.68169,0.687 -1.76844,0.687 -2.44025,0c-0.68169,-0.677 -0.68169,-1.79 0,-2.468c0.67181,-0.677 1.75856,-0.677 2.44025,0z" fill="#7166F0" id="svg_64"/>
    <path stroke="null" d="m139.92193,479.269c0.67181,0.678 0.67181,1.79 0,2.468c-0.68169,0.677 -1.76844,0.677 -2.44025,0c-0.67181,-0.678 -0.67181,-1.79 0,-2.468c0.67181,-0.687 1.76844,-0.687 2.44025,0z" fill="#7166F0" id="svg_65"/>
    <path stroke="null" d="m133.25323,486.004c0.68169,0.678 0.68169,1.79 0,2.468c-0.67181,0.677 -1.76844,0.677 -2.44025,0c-0.68169,-0.678 -0.68169,-1.79 0,-2.468c0.68169,-0.677 1.76844,-0.677 2.44025,0z" fill="#7166F0" id="svg_66"/>
    <path stroke="null" d="m126.59441,492.749c0.68169,0.677 0.68169,1.79 0,2.468c-0.68169,0.677 -1.76844,0.677 -2.44025,0c-0.68169,-0.687 -0.68169,-1.791 0,-2.468c0.67181,-0.677 1.75856,-0.677 2.44025,0z" fill="#7166F0" id="svg_67"/>
    <path stroke="null" d="m118.70065,502.474c-0.94844,0 -1.71904,-0.779 -1.71904,-1.741c0,-0.962 0.77061,-1.742 1.71904,-1.742c0.94844,0 1.71904,0.78 1.71904,1.742c0,0.962 -0.77061,1.741 -1.71904,1.741z" fill="#7166F0" id="svg_68"/>
    <path stroke="null" d="m113.25701,506.238c0.68169,0.678 0.68169,1.791 0,2.468c-0.67181,0.677 -1.76844,0.677 -2.44025,0c-0.68169,-0.677 -0.68169,-1.79 0,-2.468c0.67181,-0.687 1.76844,-0.687 2.44025,0z" fill="#7166F0" id="svg_69"/>
    <path stroke="null" d="m106.58831,512.974c0.67181,0.677 0.67181,1.79 0,2.467c-0.68169,0.678 -1.76844,0.678 -2.44025,0c-0.68169,-0.677 -0.68169,-1.79 0,-2.467c0.68169,-0.678 1.76844,-0.678 2.44025,0z" fill="#7166F0" id="svg_70"/>
    <path stroke="null" d="m99.92949,519.718c0.67181,0.678 0.67181,1.79 0,2.468c-0.68169,0.687 -1.76844,0.687 -2.44025,0c-0.67181,-0.678 -0.67181,-1.79 0,-2.468c0.67181,-0.677 1.75856,-0.677 2.44025,0z" fill="#7166F0" id="svg_71"/>
    <path stroke="null" d="m93.27067,526.463c0.67181,0.677 0.67181,1.79 0,2.468c-0.67181,0.677 -1.77832,0.677 -2.44025,0c-0.68169,-0.678 -0.68169,-1.791 0,-2.468c0.66193,-0.687 1.76844,-0.687 2.44025,0z" fill="#7166F0" id="svg_72"/>
    <path stroke="null" d="m168.24661,460.729c0.67181,0.677 0.67181,1.79 0,2.467c-0.68169,0.678 -1.76844,0.678 -2.44025,0c-0.68169,-0.677 -0.68169,-1.79 0,-2.467c0.67181,-0.687 1.76844,-0.687 2.44025,0z" fill="#7166F0" id="svg_73"/>
    <path stroke="null" d="m161.57791,467.473c0.68169,0.687 0.68169,1.791 0,2.468c-0.66193,0.677 -1.76844,0.677 -2.44025,0c-0.66193,-0.677 -0.66193,-1.79 0,-2.468c0.68169,-0.687 1.77832,-0.687 2.44025,0z" fill="#7166F0" id="svg_74"/>
    <path stroke="null" d="m154.91909,474.208c0.68169,0.687 0.68169,1.79 0,2.468c-0.68169,0.687 -1.76844,0.687 -2.44025,0c-0.67181,-0.678 -0.67181,-1.79 0,-2.468c0.67181,-0.677 1.75856,-0.677 2.44025,0z" fill="#7166F0" id="svg_75"/>
    <path stroke="null" d="m148.25039,480.953c0.67181,0.677 0.67181,1.79 0,2.468c-0.68169,0.687 -1.76844,0.687 -2.44025,0c-0.67181,-0.678 -0.67181,-1.791 0,-2.468c0.67181,-0.677 1.75856,-0.677 2.44025,0z" fill="#7166F0" id="svg_76"/>
    <path stroke="null" d="m141.58169,487.698c0.68169,0.677 0.68169,1.79 0,2.467c-0.66193,0.678 -1.76844,0.678 -2.44025,0c-0.67181,-0.677 -0.67181,-1.79 0,-2.467c0.68169,-0.687 1.77832,-0.687 2.44025,0z" fill="#7166F0" id="svg_77"/>
    <path stroke="null" d="m134.92287,494.433c0.67181,0.687 0.67181,1.79 0,2.467c-0.68169,0.678 -1.76844,0.678 -2.44025,0c-0.68169,-0.677 -0.68169,-1.79 0,-2.467c0.67181,-0.678 1.75856,-0.678 2.44025,0z" fill="#7166F0" id="svg_78"/>
    <path stroke="null" d="m128.26405,501.178c0.66193,0.677 0.66193,1.79 0,2.467c-0.68169,0.687 -1.76844,0.687 -2.44025,0c-0.67181,-0.677 -0.67181,-1.79 0,-2.467c0.67181,-0.678 1.75856,-0.678 2.44025,0z" fill="#7166F0" id="svg_79"/>
    <path stroke="null" d="m121.58548,507.923c0.68169,0.677 0.68169,1.79 0,2.467c-0.66193,0.677 -1.76844,0.677 -2.44025,0c-0.67181,-0.677 -0.67181,-1.79 0,-2.467c0.67181,-0.688 1.77832,-0.688 2.44025,0z" fill="#7166F0" id="svg_80"/>
    <path stroke="null" d="m114.91678,514.667c0.67181,0.678 0.67181,1.79 0,2.468c-0.67181,0.677 -1.76844,0.677 -2.44025,0c-0.67181,-0.678 -0.67181,-1.79 0,-2.468c0.68169,-0.687 1.77832,-0.687 2.44025,0z" fill="#7166F0" id="svg_81"/>
    <path stroke="null" d="m108.25796,521.402c0.68169,0.687 0.68169,1.791 0,2.468c-0.67181,0.677 -1.76844,0.677 -2.44025,0c-0.67181,-0.687 -0.67181,-1.79 0,-2.468c0.67181,-0.677 1.75856,-0.677 2.44025,0z" fill="#7166F0" id="svg_82"/>
    <path stroke="null" d="m101.59914,528.147c0.68169,0.677 0.68169,1.79 0,2.468c-0.67181,0.687 -1.76844,0.687 -2.44025,0c-0.68169,-0.678 -0.68169,-1.791 0,-2.468c0.67181,-0.677 1.76844,-0.677 2.44025,0z" fill="#7166F0" id="svg_83"/>
    <path stroke="null" d="m94.93044,534.892c0.66193,0.677 0.66193,1.79 0,2.467c-0.68169,0.687 -1.76844,0.687 -2.44025,0c-0.68169,-0.677 -0.68169,-1.79 0,-2.467c0.67181,-0.687 1.76844,-0.687 2.44025,0z" fill="#7166F0" id="svg_84"/>
    <path stroke="null" d="m169.91625,469.157c0.67181,0.678 0.67181,1.79 0,2.468c-0.67181,0.677 -1.77832,0.677 -2.44025,0c-0.67181,-0.678 -0.67181,-1.79 0,-2.468c0.67181,-0.687 1.76844,-0.687 2.44025,0z" fill="#7166F0" id="svg_85"/>
    <path stroke="null" d="m163.24755,475.892c0.68169,0.687 0.68169,1.791 0,2.468c-0.67181,0.677 -1.76844,0.677 -2.44025,0c-0.67181,-0.687 -0.67181,-1.79 0,-2.468c0.67181,-0.677 1.76844,-0.677 2.44025,0z" fill="#7166F0" id="svg_86"/>
    <path stroke="null" d="m156.58873,482.637c0.67181,0.677 0.67181,1.79 0,2.468c-0.68169,0.677 -1.76844,0.677 -2.44025,0c-0.67181,-0.688 -0.67181,-1.791 0,-2.468c0.67181,-0.677 1.75856,-0.677 2.44025,0z" fill="#7166F0" id="svg_87"/>
    <path stroke="null" d="m149.92003,489.382c0.67181,0.677 0.67181,1.79 0,2.467c-0.67181,0.678 -1.77832,0.678 -2.44025,0c-0.68169,-0.677 -0.68169,-1.79 0,-2.467c0.66193,-0.687 1.76844,-0.687 2.44025,0z" fill="#7166F0" id="svg_88"/>
    <path stroke="null" d="m143.25134,496.126c0.67181,0.678 0.67181,1.791 0,2.468c-0.68169,0.677 -1.76844,0.677 -2.44025,0c-0.68169,-0.677 -0.68169,-1.79 0,-2.468c0.68169,-0.687 1.76844,-0.687 2.44025,0z" fill="#7166F0" id="svg_89"/>
    <path stroke="null" d="m136.59252,502.862c0.67181,0.687 0.67181,1.79 0,2.467c-0.68169,0.678 -1.76844,0.678 -2.44025,0c-0.67181,-0.687 -0.67181,-1.79 0,-2.467c0.67181,-0.678 1.75856,-0.678 2.44025,0z" fill="#7166F0" id="svg_90"/>
    <path stroke="null" d="m129.92382,509.606c0.68169,0.678 0.68169,1.79 0,2.468c-0.67181,0.687 -1.76844,0.687 -2.44025,0c-0.68169,-0.678 -0.68169,-1.79 0,-2.468c0.67181,-0.677 1.76844,-0.677 2.44025,0z" fill="#7166F0" id="svg_91"/>
    <path stroke="null" d="m123.25512,516.351c0.67181,0.677 0.67181,1.79 0,2.468c-0.68169,0.677 -1.76844,0.677 -2.44025,0c-0.68169,-0.678 -0.68169,-1.791 0,-2.468c0.68169,-0.687 1.76844,-0.687 2.44025,0z" fill="#7166F0" id="svg_92"/>
    <path stroke="null" d="m116.5963,523.086c0.68169,0.678 0.68169,1.79 0,2.468c-0.67181,0.677 -1.76844,0.677 -2.44025,0c-0.67181,-0.678 -0.67181,-1.79 0,-2.468c0.67181,-0.677 1.75856,-0.677 2.44025,0z" fill="#7166F0" id="svg_93"/>
    <path stroke="null" d="m109.9276,529.831c0.68169,0.677 0.68169,1.79 0,2.467c-0.68169,0.678 -1.76844,0.678 -2.44025,0c-0.68169,-0.687 -0.68169,-1.79 0,-2.467c0.67181,-0.678 1.75856,-0.678 2.44025,0z" fill="#7166F0" id="svg_94"/>
    <path stroke="null" d="m103.2589,536.576c0.67181,0.677 0.67181,1.79 0,2.467c-0.68169,0.687 -1.76844,0.687 -2.44025,0c-0.67181,-0.677 -0.67181,-1.79 0,-2.467c0.67181,-0.687 1.76844,-0.687 2.44025,0z" fill="#7166F0" id="svg_95"/>
    <path stroke="null" d="m177.02953,473.812c-0.95832,0 -1.72892,-0.78 -1.72892,-1.742c0,-0.962 0.77061,-1.742 1.72892,-1.742c0.94844,0 1.71904,0.78 1.71904,1.742c0,0.962 -0.77061,1.742 -1.71904,1.742z" fill="#7166F0" id="svg_96"/>
    <path stroke="null" d="m171.57602,477.586c0.68169,0.687 0.68169,1.79 0,2.467c-0.68169,0.678 -1.76844,0.678 -2.44025,0c-0.68169,-0.677 -0.68169,-1.79 0,-2.467c0.68169,-0.687 1.76844,-0.687 2.44025,0z" fill="#7166F0" id="svg_97"/>
    <path stroke="null" d="m164.9172,484.321c0.66193,0.677 0.66193,1.79 0,2.467c-0.68169,0.678 -1.76844,0.678 -2.44025,0c-0.67181,-0.687 -0.67181,-1.79 0,-2.467c0.67181,-0.678 1.75856,-0.678 2.44025,0z" fill="#7166F0" id="svg_98"/>
    <path stroke="null" d="m158.2485,491.066c0.67181,0.677 0.67181,1.79 0,2.467c-0.67181,0.687 -1.76844,0.687 -2.44025,0c-0.68169,-0.677 -0.68169,-1.79 0,-2.467c0.67181,-0.678 1.76844,-0.678 2.44025,0z" fill="#7166F0" id="svg_99"/>
    <path stroke="null" d="m151.5798,497.81c0.67181,0.677 0.67181,1.79 0,2.468c-0.67181,0.677 -1.76844,0.677 -2.44025,0c-0.67181,-0.678 -0.67181,-1.791 0,-2.468c0.68169,-0.687 1.76844,-0.687 2.44025,0z" fill="#7166F0" id="svg_100"/>
    <path stroke="null" d="m144.92098,504.545c0.68169,0.678 0.68169,1.791 0,2.468c-0.66193,0.677 -1.76844,0.677 -2.44025,0c-0.66193,-0.677 -0.66193,-1.79 0,-2.468c0.67181,-0.677 1.76844,-0.677 2.44025,0z" fill="#7166F0" id="svg_101"/>
    <path stroke="null" d="m138.25228,511.29c0.68169,0.677 0.68169,1.79 0,2.468c-0.67181,0.677 -1.76844,0.677 -2.44025,0c-0.68169,-0.687 -0.68169,-1.791 0,-2.468c0.67181,-0.677 1.75856,-0.677 2.44025,0z" fill="#7166F0" id="svg_102"/>
    <path stroke="null" d="m131.58358,518.035c0.67181,0.677 0.67181,1.79 0,2.467c-0.68169,0.687 -1.76844,0.687 -2.44025,0c-0.67181,-0.677 -0.67181,-1.79 0,-2.467c0.67181,-0.687 1.76844,-0.687 2.44025,0z" fill="#7166F0" id="svg_103"/>
    <path stroke="null" d="m124.91488,524.78c0.68169,0.677 0.68169,1.79 0,2.467c-0.66193,0.678 -1.76844,0.678 -2.43037,0c-0.67181,-0.677 -0.67181,-1.79 0,-2.467c0.67181,-0.687 1.76844,-0.687 2.43037,0z" fill="#7166F0" id="svg_104"/>
    <path stroke="null" d="m118.25607,531.515c0.68169,0.687 0.68169,1.79 0,2.467c-0.67181,0.678 -1.76844,0.678 -2.44025,0c-0.67181,-0.677 -0.67181,-1.79 0,-2.467c0.67181,-0.678 1.76844,-0.678 2.44025,0z" fill="#7166F0" id="svg_105"/>
    <path stroke="null" d="m111.58737,538.259c0.67181,0.688 0.67181,1.791 0,2.468c-0.68169,0.677 -1.76844,0.677 -2.44025,0c-0.67181,-0.687 -0.67181,-1.79 0,-2.468c0.67181,-0.677 1.76844,-0.677 2.44025,0z" fill="#7166F0" id="svg_106"/>
    <path stroke="null" d="m104.91867,545.004c0.68169,0.677 0.68169,1.79 0,2.467c-0.66193,0.678 -1.76844,0.678 -2.43037,0c-0.68169,-0.677 -0.68169,-1.79 0,-2.467c0.67181,-0.687 1.76844,-0.687 2.43037,0z" fill="#7166F0" id="svg_107"/>
    <path stroke="null" d="m179.90448,479.269c0.68169,0.678 0.68169,1.79 0,2.468c-0.67181,0.677 -1.76844,0.677 -2.44025,0c-0.67181,-0.678 -0.67181,-1.79 0,-2.468c0.68169,-0.687 1.77832,-0.687 2.44025,0z" fill="#7166F0" id="svg_108"/>
    <path stroke="null" d="m173.25554,486.004c0.66193,0.678 0.66193,1.79 0,2.468c-0.68169,0.677 -1.77832,0.677 -2.44025,0c-0.67181,-0.678 -0.67181,-1.79 0,-2.468c0.66193,-0.677 1.75856,-0.677 2.44025,0z" fill="#7166F0" id="svg_109"/>
    <path stroke="null" d="m166.58684,492.749c0.68169,0.677 0.68169,1.79 0,2.467c-0.67181,0.678 -1.76844,0.678 -2.44025,0c-0.68169,-0.687 -0.68169,-1.79 0,-2.467c0.67181,-0.678 1.75856,-0.678 2.44025,0z" fill="#7166F0" id="svg_110"/>
    <path stroke="null" d="m158.70296,502.474c-0.95832,0 -1.72892,-0.779 -1.72892,-1.741c0,-0.962 0.77061,-1.742 1.72892,-1.742c0.94844,0 1.71904,0.78 1.71904,1.742c0,0.962 -0.77061,1.741 -1.71904,1.741z" fill="#7166F0" id="svg_111"/>
    <path stroke="null" d="m152.03426,509.209c-0.95832,0 -1.72892,-0.78 -1.72892,-1.742c0,-0.962 0.77061,-1.741 1.72892,-1.741c0.94844,0 1.71904,0.779 1.71904,1.741c0,0.962 -0.77061,1.742 -1.71904,1.742z" fill="#7166F0" id="svg_112"/>
    <path stroke="null" d="m146.59063,512.973c0.68169,0.678 0.68169,1.791 0,2.468c-0.68169,0.677 -1.76844,0.677 -2.44025,0c-0.68169,-0.677 -0.68169,-1.79 0,-2.468c0.67181,-0.677 1.75856,-0.677 2.44025,0z" fill="#7166F0" id="svg_113"/>
    <path stroke="null" d="m139.92193,519.718c0.67181,0.678 0.67181,1.791 0,2.468c-0.68169,0.687 -1.76844,0.687 -2.44025,0c-0.67181,-0.677 -0.67181,-1.79 0,-2.468c0.67181,-0.677 1.76844,-0.677 2.44025,0z" fill="#7166F0" id="svg_114"/>
    <path stroke="null" d="m133.25323,526.463c0.68169,0.677 0.68169,1.79 0,2.468c-0.67181,0.677 -1.76844,0.677 -2.44025,0c-0.68169,-0.678 -0.68169,-1.791 0,-2.468c0.68169,-0.687 1.76844,-0.687 2.44025,0z" fill="#7166F0" id="svg_115"/>
    <path stroke="null" d="m126.59441,533.208c0.67181,0.677 0.67181,1.79 0,2.467c-0.68169,0.678 -1.77832,0.678 -2.44025,0c-0.68169,-0.677 -0.68169,-1.79 0,-2.467c0.66193,-0.687 1.75856,-0.687 2.44025,0z" fill="#7166F0" id="svg_116"/>
    <path stroke="null" d="m119.92571,539.943c0.66193,0.687 0.66193,1.79 0,2.467c-0.68169,0.678 -1.77832,0.678 -2.44025,0c-0.67181,-0.677 -0.67181,-1.79 0,-2.467c0.66193,-0.678 1.75856,-0.678 2.44025,0z" fill="#7166F0" id="svg_117"/>
    <path stroke="null" d="m113.25701,546.688c0.68169,0.677 0.68169,1.79 0,2.467c-0.67181,0.678 -1.76844,0.678 -2.44025,0c-0.68169,-0.687 -0.68169,-1.79 0,-2.467c0.67181,-0.687 1.76844,-0.687 2.44025,0z" fill="#7166F0" id="svg_118"/>
    <path stroke="null" d="m188.23294,480.953c0.68169,0.677 0.68169,1.79 0,2.467c-0.67181,0.688 -1.76844,0.688 -2.43037,0c-0.68169,-0.677 -0.68169,-1.79 0,-2.467c0.66193,-0.678 1.76844,-0.678 2.43037,0z" fill="#7166F0" id="svg_119"/>
    <path stroke="null" d="m181.584,487.698c0.67181,0.677 0.67181,1.79 0,2.467c-0.68169,0.678 -1.76844,0.678 -2.44025,0c-0.67181,-0.677 -0.67181,-1.79 0,-2.467c0.67181,-0.687 1.75856,-0.687 2.44025,0z" fill="#7166F0" id="svg_120"/>
    <path stroke="null" d="m174.91531,494.433c0.68169,0.687 0.68169,1.79 0,2.467c-0.67181,0.678 -1.76844,0.678 -2.44025,0c-0.68169,-0.677 -0.68169,-1.79 0,-2.467c0.67181,-0.678 1.75856,-0.678 2.44025,0z" fill="#7166F0" id="svg_121"/>
    <path stroke="null" d="m168.24661,501.177c0.67181,0.678 0.67181,1.791 0,2.468c-0.68169,0.687 -1.76844,0.687 -2.44025,0c-0.68169,-0.677 -0.68169,-1.79 0,-2.468c0.67181,-0.677 1.76844,-0.677 2.44025,0z" fill="#7166F0" id="svg_122"/>
    <path stroke="null" d="m161.57791,507.922c0.68169,0.678 0.68169,1.79 0,2.468c-0.67181,0.677 -1.76844,0.677 -2.44025,0c-0.67181,-0.678 -0.67181,-1.79 0,-2.468c0.68169,-0.687 1.76844,-0.687 2.44025,0z" fill="#7166F0" id="svg_123"/>
    <path stroke="null" d="m154.91909,514.667c0.68169,0.677 0.68169,1.79 0,2.467c-0.68169,0.678 -1.76844,0.678 -2.44025,0c-0.68169,-0.677 -0.68169,-1.79 0,-2.467c0.67181,-0.687 1.75856,-0.687 2.44025,0z" fill="#7166F0" id="svg_124"/>
    <path stroke="null" d="m148.25039,521.402c0.67181,0.687 0.67181,1.79 0,2.468c-0.68169,0.677 -1.76844,0.677 -2.44025,0c-0.67181,-0.687 -0.67181,-1.791 0,-2.468c0.67181,-0.677 1.75856,-0.677 2.44025,0z" fill="#7166F0" id="svg_125"/>
    <path stroke="null" d="m141.58169,528.147c0.68169,0.677 0.68169,1.79 0,2.467c-0.67181,0.687 -1.76844,0.687 -2.44025,0c-0.68169,-0.677 -0.68169,-1.79 0,-2.467c0.68169,-0.678 1.76844,-0.678 2.44025,0z" fill="#7166F0" id="svg_126"/>
    <path stroke="null" d="m134.92287,534.892c0.67181,0.677 0.67181,1.79 0,2.467c-0.67181,0.687 -1.76844,0.687 -2.44025,0c-0.67181,-0.677 -0.67181,-1.79 0,-2.467c0.67181,-0.687 1.76844,-0.687 2.44025,0z" fill="#7166F0" id="svg_127"/>
    <path stroke="null" d="m128.25417,541.627c0.67181,0.677 0.67181,1.79 0,2.467c-0.67181,0.678 -1.76844,0.678 -2.44025,0c-0.66193,-0.677 -0.66193,-1.79 0,-2.467c0.67181,-0.678 1.76844,-0.678 2.44025,0z" fill="#7166F0" id="svg_128"/>
    <path stroke="null" d="m121.58548,548.371c0.68169,0.687 0.68169,1.791 0,2.468c-0.67181,0.677 -1.76844,0.677 -2.44025,0c-0.68169,-0.677 -0.68169,-1.79 0,-2.468c0.67181,-0.677 1.76844,-0.677 2.44025,0z" fill="#7166F0" id="svg_129"/>
    <path stroke="null" d="m114.92666,555.116c0.66193,0.677 0.66193,1.79 0,2.467c-0.68169,0.688 -1.77832,0.688 -2.44025,0c-0.68169,-0.677 -0.68169,-1.79 0,-2.467c0.67181,-0.687 1.76844,-0.687 2.44025,0z" fill="#7166F0" id="svg_130"/>
    <path stroke="null" d="m189.90259,489.382c0.68169,0.677 0.68169,1.79 0,2.467c-0.67181,0.678 -1.76844,0.678 -2.44025,0c-0.67181,-0.677 -0.67181,-1.79 0,-2.467c0.68169,-0.687 1.76844,-0.687 2.44025,0z" fill="#7166F0" id="svg_131"/>
    <path stroke="null" d="m183.24377,496.126c0.68169,0.678 0.68169,1.791 0,2.468c-0.66193,0.677 -1.76844,0.677 -2.44025,0c-0.67181,-0.677 -0.67181,-1.79 0,-2.468c0.67181,-0.687 1.76844,-0.687 2.44025,0z" fill="#7166F0" id="svg_132"/>
    <path stroke="null" d="m176.57507,502.862c0.67181,0.687 0.67181,1.79 0,2.467c-0.67181,0.678 -1.76844,0.678 -2.44025,0c-0.67181,-0.687 -0.67181,-1.79 0,-2.467c0.67181,-0.678 1.77832,-0.678 2.44025,0z" fill="#7166F0" id="svg_133"/>
    <path stroke="null" d="m169.91625,509.606c0.67181,0.678 0.67181,1.79 0,2.468c-0.67181,0.687 -1.77832,0.687 -2.44025,0c-0.67181,-0.678 -0.67181,-1.79 0,-2.468c0.67181,-0.677 1.76844,-0.677 2.44025,0z" fill="#7166F0" id="svg_134"/>
    <path stroke="null" d="m163.24755,516.351c0.68169,0.677 0.68169,1.79 0,2.468c-0.67181,0.677 -1.76844,0.677 -2.44025,0c-0.67181,-0.678 -0.67181,-1.791 0,-2.468c0.67181,-0.687 1.76844,-0.687 2.44025,0z" fill="#7166F0" id="svg_135"/>
    <path stroke="null" d="m156.57885,523.086c0.67181,0.678 0.67181,1.79 0,2.468c-0.67181,0.677 -1.76844,0.677 -2.44025,0c-0.66193,-0.678 -0.66193,-1.79 0,-2.468c0.67181,-0.677 1.76844,-0.677 2.44025,0z" fill="#7166F0" id="svg_136"/>
    <path stroke="null" d="m149.92003,529.831c0.67181,0.677 0.67181,1.79 0,2.467c-0.67181,0.678 -1.77832,0.678 -2.44025,0c-0.68169,-0.687 -0.68169,-1.79 0,-2.467c0.66193,-0.678 1.76844,-0.678 2.44025,0z" fill="#7166F0" id="svg_137"/>
    <path stroke="null" d="m143.25134,536.576c0.66193,0.677 0.66193,1.79 0,2.467c-0.68169,0.687 -1.77832,0.687 -2.44025,0c-0.68169,-0.677 -0.68169,-1.79 0,-2.467c0.67181,-0.687 1.76844,-0.687 2.44025,0z" fill="#7166F0" id="svg_138"/>
    <path stroke="null" d="m136.59252,543.32c0.67181,0.678 0.67181,1.79 0,2.468c-0.68169,0.677 -1.76844,0.677 -2.44025,0c-0.67181,-0.678 -0.67181,-1.79 0,-2.468c0.67181,-0.687 1.75856,-0.687 2.44025,0z" fill="#7166F0" id="svg_139"/>
    <path stroke="null" d="m129.92382,550.055c0.67181,0.678 0.67181,1.791 0,2.468c-0.67181,0.677 -1.77832,0.677 -2.44025,0c-0.68169,-0.677 -0.68169,-1.79 0,-2.468c0.66193,-0.677 1.76844,-0.677 2.44025,0z" fill="#7166F0" id="svg_140"/>
    <path stroke="null" d="m122.03993,559.78c-0.94844,0 -1.71904,-0.78 -1.71904,-1.742c0,-0.962 0.77061,-1.741 1.71904,-1.741c0.94844,0 1.71904,0.779 1.71904,1.741c0,0.962 -0.77061,1.742 -1.71904,1.742z" fill="#7166F0" id="svg_141"/>
    <path stroke="null" d="m198.24093,491.065c0.68169,0.678 0.68169,1.791 0,2.468c-0.67181,0.687 -1.76844,0.687 -2.44025,0c-0.67181,-0.677 -0.67181,-1.79 0,-2.468c0.68169,-0.677 1.76844,-0.677 2.44025,0z" fill="#7166F0" id="svg_142"/>
    <path stroke="null" d="m191.58211,497.81c0.66193,0.677 0.66193,1.79 0,2.468c-0.68169,0.677 -1.76844,0.677 -2.44025,0c-0.68169,-0.678 -0.68169,-1.791 0,-2.468c0.67181,-0.687 1.75856,-0.687 2.44025,0z" fill="#7166F0" id="svg_143"/>
    <path stroke="null" d="m184.91341,504.545c0.66193,0.678 0.66193,1.79 0,2.468c-0.68169,0.677 -1.76844,0.677 -2.44025,0c-0.68169,-0.678 -0.68169,-1.79 0,-2.468c0.67181,-0.677 1.75856,-0.677 2.44025,0z" fill="#7166F0" id="svg_144"/>
    <path stroke="null" d="m178.24471,511.29c0.68169,0.677 0.68169,1.79 0,2.467c-0.67181,0.678 -1.76844,0.678 -2.44025,0c-0.67181,-0.687 -0.67181,-1.79 0,-2.467c0.67181,-0.678 1.76844,-0.678 2.44025,0z" fill="#7166F0" id="svg_145"/>
    <path stroke="null" d="m171.57602,518.035c0.68169,0.677 0.68169,1.79 0,2.467c-0.68169,0.687 -1.76844,0.687 -2.44025,0c-0.68169,-0.677 -0.68169,-1.79 0,-2.467c0.68169,-0.687 1.76844,-0.687 2.44025,0z" fill="#7166F0" id="svg_146"/>
    <path stroke="null" d="m164.9172,524.779c0.67181,0.678 0.67181,1.79 0,2.468c-0.67181,0.677 -1.76844,0.677 -2.44025,0c-0.66193,-0.678 -0.66193,-1.79 0,-2.468c0.67181,-0.687 1.76844,-0.687 2.44025,0z" fill="#7166F0" id="svg_147"/>
    <path stroke="null" d="m158.25838,531.515c0.67181,0.687 0.67181,1.79 0,2.467c-0.67181,0.678 -1.77832,0.678 -2.44025,0c-0.68169,-0.677 -0.68169,-1.79 0,-2.467c0.66193,-0.678 1.76844,-0.678 2.44025,0z" fill="#7166F0" id="svg_148"/>
    <path stroke="null" d="m151.5798,538.259c0.67181,0.688 0.67181,1.791 0,2.468c-0.67181,0.677 -1.76844,0.677 -2.43037,0c-0.68169,-0.687 -0.68169,-1.79 0,-2.468c0.67181,-0.677 1.76844,-0.677 2.43037,0z" fill="#7166F0" id="svg_149"/>
    <path stroke="null" d="m144.92098,545.004c0.68169,0.677 0.68169,1.79 0,2.467c-0.66193,0.678 -1.76844,0.678 -2.44025,0c-0.66193,-0.677 -0.66193,-1.79 0,-2.467c0.67181,-0.687 1.76844,-0.687 2.44025,0z" fill="#7166F0" id="svg_150"/>
    <path stroke="null" d="m138.25228,551.739c0.68169,0.677 0.68169,1.79 0,2.468c-0.66193,0.677 -1.76844,0.677 -2.43037,0c-0.68169,-0.678 -0.68169,-1.791 0,-2.468c0.66193,-0.677 1.75856,-0.677 2.43037,0z" fill="#7166F0" id="svg_151"/>
    <path stroke="null" d="m131.58358,558.484c0.67181,0.677 0.67181,1.79 0,2.467c-0.67181,0.678 -1.76844,0.678 -2.43037,0c-0.68169,-0.677 -0.68169,-1.79 0,-2.467c0.66193,-0.678 1.76844,-0.678 2.43037,0z" fill="#7166F0" id="svg_152"/>
    <path stroke="null" d="m123.6997,568.209c-0.94844,0 -1.71904,-0.78 -1.71904,-1.742c0,-0.962 0.77061,-1.742 1.71904,-1.742c0.95832,0 1.72892,0.78 1.72892,1.742c0,0.962 -0.77061,1.742 -1.72892,1.742z" fill="#7166F0" id="svg_153"/>
    <path stroke="null" d="m199.9007,499.494c0.68169,0.677 0.68169,1.79 0,2.467c-0.66193,0.678 -1.76844,0.678 -2.44025,0c-0.67181,-0.677 -0.67181,-1.79 0,-2.467c0.68169,-0.687 1.77832,-0.687 2.44025,0z" fill="#7166F0" id="svg_154"/>
    <path stroke="null" d="m193.24188,506.238c0.67181,0.678 0.67181,1.791 0,2.468c-0.68169,0.677 -1.76844,0.677 -2.44025,0c-0.68169,-0.677 -0.68169,-1.79 0,-2.468c0.67181,-0.687 1.75856,-0.687 2.44025,0z" fill="#7166F0" id="svg_155"/>
    <path stroke="null" d="m186.57318,512.974c0.68169,0.677 0.68169,1.79 0,2.467c-0.66193,0.678 -1.76844,0.678 -2.44025,0c-0.66193,-0.677 -0.66193,-1.79 0,-2.467c0.67181,-0.678 1.77832,-0.678 2.44025,0z" fill="#7166F0" id="svg_156"/>
    <path stroke="null" d="m179.90448,519.718c0.68169,0.678 0.68169,1.79 0,2.468c-0.67181,0.687 -1.76844,0.687 -2.44025,0c-0.67181,-0.678 -0.67181,-1.79 0,-2.468c0.68169,-0.677 1.77832,-0.677 2.44025,0z" fill="#7166F0" id="svg_157"/>
    <path stroke="null" d="m173.25554,526.463c0.66193,0.677 0.66193,1.79 0,2.468c-0.68169,0.677 -1.77832,0.677 -2.44025,0c-0.67181,-0.678 -0.67181,-1.791 0,-2.468c0.66193,-0.687 1.75856,-0.687 2.44025,0z" fill="#7166F0" id="svg_158"/>
    <path stroke="null" d="m166.58684,533.208c0.68169,0.677 0.68169,1.79 0,2.468c-0.67181,0.677 -1.76844,0.677 -2.44025,0c-0.68169,-0.678 -0.68169,-1.791 0,-2.468c0.67181,-0.687 1.75856,-0.687 2.44025,0z" fill="#7166F0" id="svg_159"/>
    <path stroke="null" d="m159.91814,539.943c0.67181,0.687 0.67181,1.79 0,2.467c-0.68169,0.678 -1.76844,0.678 -2.44025,0c-0.68169,-0.677 -0.68169,-1.79 0,-2.467c0.67181,-0.678 1.76844,-0.678 2.44025,0z" fill="#7166F0" id="svg_160"/>
    <path stroke="null" d="m153.24944,546.688c0.68169,0.677 0.68169,1.79 0,2.467c-0.67181,0.678 -1.76844,0.678 -2.44025,0c-0.67181,-0.687 -0.67181,-1.79 0,-2.467c0.68169,-0.687 1.76844,-0.687 2.44025,0z" fill="#7166F0" id="svg_161"/>
    <path stroke="null" d="m146.59063,553.433c0.68169,0.677 0.68169,1.79 0,2.467c-0.68169,0.687 -1.76844,0.687 -2.44025,0c-0.68169,-0.677 -0.68169,-1.79 0,-2.467c0.67181,-0.688 1.75856,-0.688 2.44025,0z" fill="#7166F0" id="svg_162"/>
    <path stroke="null" d="m139.92193,560.167c0.67181,0.688 0.67181,1.791 0,2.468c-0.68169,0.677 -1.76844,0.677 -2.44025,0c-0.67181,-0.677 -0.67181,-1.79 0,-2.468c0.67181,-0.677 1.76844,-0.677 2.44025,0z" fill="#7166F0" id="svg_163"/>
    <path stroke="null" d="m133.25323,566.912c0.68169,0.687 0.68169,1.791 0,2.468c-0.67181,0.677 -1.76844,0.677 -2.44025,0c-0.68169,-0.687 -0.68169,-1.79 0,-2.468c0.68169,-0.677 1.76844,-0.677 2.44025,0z" fill="#7166F0" id="svg_164"/>
    <path stroke="null" d="m208.23904,501.178c0.67181,0.677 0.67181,1.79 0,2.467c-0.67181,0.687 -1.76844,0.687 -2.44025,0c-0.68169,-0.677 -0.68169,-1.79 0,-2.467c0.68169,-0.678 1.76844,-0.678 2.44025,0z" fill="#7166F0" id="svg_165"/>
    <path stroke="null" d="m201.57034,507.922c0.67181,0.678 0.67181,1.79 0,2.468c-0.67181,0.677 -1.76844,0.677 -2.44025,0c-0.66193,-0.678 -0.66193,-1.79 0,-2.468c0.67181,-0.687 1.76844,-0.687 2.44025,0z" fill="#7166F0" id="svg_166"/>
    <path stroke="null" d="m194.91152,514.667c0.67181,0.678 0.67181,1.791 0,2.468c-0.67181,0.677 -1.76844,0.677 -2.44025,0c-0.67181,-0.677 -0.67181,-1.79 0,-2.468c0.67181,-0.687 1.76844,-0.687 2.44025,0z" fill="#7166F0" id="svg_167"/>
    <path stroke="null" d="m188.24282,521.403c0.67181,0.687 0.67181,1.79 0,2.467c-0.68169,0.678 -1.76844,0.678 -2.44025,0c-0.68169,-0.687 -0.68169,-1.79 0,-2.467c0.67181,-0.678 1.76844,-0.678 2.44025,0z" fill="#7166F0" id="svg_168"/>
    <path stroke="null" d="m181.584,528.147c0.67181,0.678 0.67181,1.79 0,2.468c-0.68169,0.687 -1.76844,0.687 -2.44025,0c-0.67181,-0.678 -0.67181,-1.79 0,-2.468c0.67181,-0.677 1.75856,-0.677 2.44025,0z" fill="#7166F0" id="svg_169"/>
    <path stroke="null" d="m174.91531,534.892c0.68169,0.677 0.68169,1.79 0,2.468c-0.67181,0.687 -1.76844,0.687 -2.44025,0c-0.67181,-0.678 -0.67181,-1.791 0,-2.468c0.67181,-0.687 1.75856,-0.687 2.44025,0z" fill="#7166F0" id="svg_170"/>
    <path stroke="null" d="m168.24661,541.627c0.67181,0.678 0.67181,1.79 0,2.468c-0.68169,0.677 -1.76844,0.677 -2.44025,0c-0.68169,-0.678 -0.68169,-1.79 0,-2.468c0.67181,-0.677 1.76844,-0.677 2.44025,0z" fill="#7166F0" id="svg_171"/>
    <path stroke="null" d="m161.57791,548.372c0.68169,0.687 0.68169,1.79 0,2.467c-0.67181,0.678 -1.76844,0.678 -2.44025,0c-0.66193,-0.677 -0.66193,-1.79 0,-2.467c0.68169,-0.678 1.76844,-0.678 2.44025,0z" fill="#7166F0" id="svg_172"/>
    <path stroke="null" d="m154.91909,555.116c0.68169,0.678 0.68169,1.791 0,2.468c-0.68169,0.687 -1.76844,0.687 -2.44025,0c-0.67181,-0.677 -0.67181,-1.79 0,-2.468c0.67181,-0.687 1.75856,-0.687 2.44025,0z" fill="#7166F0" id="svg_173"/>
    <path stroke="null" d="m148.25039,561.861c0.67181,0.677 0.67181,1.79 0,2.468c-0.68169,0.687 -1.76844,0.687 -2.44025,0c-0.67181,-0.678 -0.67181,-1.791 0,-2.468c0.67181,-0.687 1.75856,-0.687 2.44025,0z" fill="#7166F0" id="svg_174"/>
    <path stroke="null" d="m141.58169,568.596c0.68169,0.677 0.68169,1.79 0,2.468c-0.66193,0.677 -1.76844,0.677 -2.44025,0c-0.67181,-0.678 -0.67181,-1.791 0,-2.468c0.68169,-0.677 1.77832,-0.677 2.44025,0z" fill="#7166F0" id="svg_175"/>
    <path stroke="null" d="m134.92287,575.341c0.67181,0.687 0.67181,1.79 0,2.468c-0.68169,0.677 -1.76844,0.677 -2.44025,0c-0.68169,-0.687 -0.68169,-1.791 0,-2.468c0.67181,-0.677 1.75856,-0.677 2.44025,0z" fill="#7166F0" id="svg_176"/>
    <path stroke="null" d="m209.90868,509.606c0.67181,0.677 0.67181,1.79 0,2.468c-0.67181,0.687 -1.76844,0.687 -2.44025,0c-0.66193,-0.678 -0.66193,-1.791 0,-2.468c0.67181,-0.677 1.76844,-0.677 2.44025,0z" fill="#7166F0" id="svg_177"/>
    <path stroke="null" d="m203.24986,516.351c0.67181,0.677 0.67181,1.79 0,2.468c-0.67181,0.677 -1.77832,0.677 -2.44025,0c-0.68169,-0.678 -0.68169,-1.791 0,-2.468c0.67181,-0.677 1.75856,-0.687 2.44025,0z" fill="#7166F0" id="svg_178"/>
    <path stroke="null" d="m196.57129,523.086c0.68169,0.677 0.68169,1.79 0,2.468c-0.68169,0.677 -1.76844,0.677 -2.44025,0c-0.68169,-0.678 -0.68169,-1.791 0,-2.468c0.67181,-0.677 1.76844,-0.677 2.44025,0z" fill="#7166F0" id="svg_179"/>
    <path stroke="null" d="m189.90259,529.831c0.68169,0.677 0.68169,1.79 0,2.467c-0.67181,0.678 -1.76844,0.678 -2.44025,0c-0.66193,-0.687 -0.66193,-1.79 0,-2.467c0.68169,-0.678 1.76844,-0.678 2.44025,0z" fill="#7166F0" id="svg_180"/>
    <path stroke="null" d="m183.25365,536.575c0.67181,0.678 0.67181,1.791 0,2.468c-0.67181,0.687 -1.77832,0.687 -2.44025,0c-0.68169,-0.677 -0.68169,-1.79 0,-2.468c0.66193,-0.687 1.75856,-0.687 2.44025,0z" fill="#7166F0" id="svg_181"/>
    <path stroke="null" d="m176.58495,543.32c0.66193,0.677 0.66193,1.79 0,2.468c-0.68169,0.677 -1.77832,0.677 -2.44025,0c-0.68169,-0.678 -0.68169,-1.791 0,-2.468c0.66193,-0.687 1.76844,-0.687 2.44025,0z" fill="#7166F0" id="svg_182"/>
    <path stroke="null" d="m169.91625,550.055c0.67181,0.678 0.67181,1.791 0,2.468c-0.67181,0.677 -1.77832,0.677 -2.44025,0c-0.67181,-0.677 -0.67181,-1.79 0,-2.468c0.67181,-0.677 1.76844,-0.677 2.44025,0z" fill="#7166F0" id="svg_183"/>
    <path stroke="null" d="m163.25743,556.8c0.67181,0.687 0.67181,1.79 0,2.468c-0.68169,0.677 -1.77832,0.677 -2.44025,0c-0.68169,-0.687 -0.68169,-1.791 0,-2.468c0.66193,-0.677 1.75856,-0.677 2.44025,0z" fill="#7166F0" id="svg_184"/>
    <path stroke="null" d="m156.58873,563.545c0.66193,0.677 0.66193,1.79 0,2.467c-0.68169,0.687 -1.77832,0.687 -2.44025,0c-0.67181,-0.677 -0.67181,-1.79 0,-2.467c0.66193,-0.687 1.75856,-0.687 2.44025,0z" fill="#7166F0" id="svg_185"/>
    <path stroke="null" d="m149.92003,570.28c0.67181,0.677 0.67181,1.79 0,2.468c-0.67181,0.677 -1.77832,0.677 -2.44025,0c-0.68169,-0.678 -0.68169,-1.791 0,-2.468c0.66193,-0.677 1.76844,-0.677 2.44025,0z" fill="#7166F0" id="svg_186"/>
    <path stroke="null" d="m143.25134,577.024c0.67181,0.687 0.67181,1.791 0,2.468c-0.68169,0.677 -1.76844,0.677 -2.44025,0c-0.68169,-0.677 -0.68169,-1.79 0,-2.468c0.68169,-0.677 1.76844,-0.677 2.44025,0z" fill="#7166F0" id="svg_187"/>
   </g>
   <path stroke="null" d="m299.08153,358.754l-35.34904,35.754l-35.34904,-35.754l35.34904,-35.754l35.34904,35.754zm-35.34904,13.677l13.52511,-13.677l-13.52511,-13.677l-13.51523,13.677l13.51523,13.677z" fill="#E6E4FF" id="svg_188"/>
   <path stroke="null" d="m84.16173,208c11.74679,0 21.28056,9.662 21.28056,21.537c0,11.876 -9.55353,21.538 -21.28056,21.538c-11.73691,0 -21.29044,-9.662 -21.29044,-21.538c0,-11.875 9.55353,-21.537 21.29044,-21.537zm0,27.454c3.23061,0 5.8487,-2.653 5.8487,-5.931c0,-3.263 -2.61808,-5.93 -5.8487,-5.93c-3.22073,0 -5.85858,2.653 -5.85858,5.93c0,3.278 2.63784,5.931 5.85858,5.931z" fill="#E6E4FF" id="svg_189"/>
   <g stroke="null" opacity="0.32" id="svg_190">
    <path stroke="null" d="m1690.33508,278.392c0.67873,0.677 0.67873,1.79 0,2.467c-0.66983,0.677 -1.77042,0.677 -2.43926,0c-0.67971,-0.677 -0.67971,-1.79 0,-2.467c0.66885,-0.688 1.75955,-0.688 2.43926,0z" fill="#7166F0" id="svg_191"/>
    <path stroke="null" d="m1683.6654,285.126c0.66983,0.678 0.66983,1.791 0,2.468c-0.67873,0.687 -1.76943,0.687 -2.43926,0c-0.67971,-0.677 -0.67971,-1.79 0,-2.468c0.66983,-0.677 1.76943,-0.677 2.43926,0z" fill="#7166F0" id="svg_192"/>
    <path stroke="null" d="m1675.78151,294.852c-0.9514,0 -1.72201,-0.78 -1.72201,-1.742c0,-0.962 0.77061,-1.742 1.72201,-1.742c0.95041,0 1.72201,0.78 1.72201,1.742c0,0.962 -0.77159,1.742 -1.72201,1.742z" fill="#7166F0" id="svg_193"/>
    <path stroke="null" d="m1670.33887,298.616c0.67873,0.677 0.67873,1.79 0,2.467c-0.67971,0.678 -1.77042,0.678 -2.44025,0c-0.67873,-0.677 -0.67873,-1.79 0,-2.467c0.66983,-0.687 1.76054,-0.687 2.44025,0z" fill="#7166F0" id="svg_194"/>
    <path stroke="null" d="m1663.66918,305.351c0.66983,0.678 0.66983,1.791 0,2.468c-0.67873,0.677 -1.76943,0.677 -2.43926,0c-0.66983,-0.687 -0.66983,-1.79 0,-2.468c0.66983,-0.677 1.76943,-0.677 2.43926,0z" fill="#7166F0" id="svg_195"/>
    <path stroke="null" d="m1657.00345,312.096c0.67873,0.677 0.67873,1.79 0,2.468c-0.66983,0.677 -1.77042,0.677 -2.44025,0c-0.67873,-0.678 -0.67873,-1.791 0,-2.468c0.67971,-0.677 1.77042,-0.677 2.44025,0z" fill="#7166F0" id="svg_196"/>
    <path stroke="null" d="m1650.34759,318.841c0.67971,0.677 0.67971,1.79 0,2.467c-0.67873,0.678 -1.76943,0.678 -2.43926,0c-0.67971,-0.677 -0.67971,-1.79 0,-2.467c0.66983,-0.687 1.76054,-0.687 2.43926,0z" fill="#7166F0" id="svg_197"/>
    <path stroke="null" d="m1643.67889,325.585c0.66983,0.687 0.66983,1.791 0,2.468c-0.67971,0.677 -1.77042,0.677 -2.44025,0c-0.66885,-0.677 -0.66885,-1.79 0,-2.468c0.66983,-0.687 1.76054,-0.687 2.44025,0z" fill="#7166F0" id="svg_198"/>
    <path stroke="null" d="m1637.00624,332.321c0.67971,0.677 0.67971,1.79 0,2.467c-0.66983,0.678 -1.76943,0.678 -2.43926,0c-0.67873,-0.687 -0.67873,-1.79 0,-2.467c0.66983,-0.678 1.76943,-0.678 2.43926,0z" fill="#7166F0" id="svg_199"/>
    <path stroke="null" d="m1630.3415,339.065c0.66983,0.678 0.66983,1.79 0,2.468c-0.67971,0.687 -1.77042,0.687 -2.44025,0c-0.67873,-0.678 -0.67873,-1.79 0,-2.468c0.67971,-0.677 1.77042,-0.677 2.44025,0z" fill="#7166F0" id="svg_200"/>
    <path stroke="null" d="m1622.4586,348.781c-0.9514,0 -1.72201,-0.78 -1.72201,-1.742c0,-0.962 0.77061,-1.742 1.72201,-1.742c0.9514,0 1.72201,0.78 1.72201,1.742c0,0.962 -0.77061,1.742 -1.72201,1.742z" fill="#7166F0" id="svg_201"/>
    <path stroke="null" d="m1617.01398,352.545c0.67971,0.677 0.67971,1.79 0,2.467c-0.67971,0.678 -1.76943,0.678 -2.43926,0c-0.67971,-0.677 -0.67971,-1.79 0,-2.467c0.66983,-0.677 1.75955,-0.677 2.43926,0z" fill="#7166F0" id="svg_202"/>
    <path stroke="null" d="m1691.99781,286.81c0.66983,0.687 0.66983,1.79 0,2.468c-0.67971,0.677 -1.77042,0.677 -2.43926,0c-0.66983,-0.687 -0.66983,-1.79 0,-2.468c0.66885,-0.677 1.76943,-0.677 2.43926,0z" fill="#7166F0" id="svg_203"/>
    <path stroke="null" d="m1685.33109,293.555c0.67971,0.677 0.67971,1.79 0,2.467c-0.66885,0.688 -1.76943,0.688 -2.43926,0c-0.67873,-0.677 -0.67873,-1.79 0,-2.467c0.67971,-0.677 1.77042,-0.677 2.43926,0z" fill="#7166F0" id="svg_204"/>
    <path stroke="null" d="m1678.6703,300.3c0.67971,0.677 0.67971,1.79 0,2.467c-0.67873,0.678 -1.76943,0.678 -2.43926,0c-0.67971,-0.677 -0.67971,-1.79 0,-2.467c0.66983,-0.687 1.76054,-0.687 2.43926,0z" fill="#7166F0" id="svg_205"/>
    <path stroke="null" d="m1672.0016,307.044c0.66885,0.678 0.66885,1.791 0,2.468c-0.67971,0.677 -1.77042,0.677 -2.44025,0c-0.66885,-0.677 -0.66885,-1.79 0,-2.468c0.66983,-0.687 1.76054,-0.687 2.44025,0z" fill="#7166F0" id="svg_206"/>
    <path stroke="null" d="m1665.33487,313.78c0.67971,0.677 0.67971,1.79 0,2.467c-0.66983,0.677 -1.76943,0.677 -2.43926,0c-0.67971,-0.687 -0.67971,-1.79 0,-2.467c0.66983,-0.678 1.76943,-0.678 2.43926,0z" fill="#7166F0" id="svg_207"/>
    <path stroke="null" d="m1658.6642,320.524c0.66885,0.678 0.66885,1.791 0,2.468c-0.67971,0.687 -1.77042,0.687 -2.44025,0c-0.67873,-0.677 -0.67873,-1.79 0,-2.468c0.67971,-0.677 1.77042,-0.677 2.44025,0z" fill="#7166F0" id="svg_208"/>
    <path stroke="null" d="m1652.00834,327.269c0.66983,0.677 0.66983,1.79 0,2.468c-0.67873,0.677 -1.76943,0.677 -2.43926,0c-0.66983,-0.678 -0.66983,-1.791 0,-2.468c0.66983,-0.687 1.76054,-0.687 2.43926,0z" fill="#7166F0" id="svg_209"/>
    <path stroke="null" d="m1645.33866,334.004c0.67873,0.678 0.67873,1.79 0,2.468c-0.66983,0.677 -1.77042,0.677 -2.43926,0c-0.67971,-0.678 -0.67971,-1.79 0,-2.468c0.66885,-0.677 1.76943,-0.677 2.43926,0z" fill="#7166F0" id="svg_210"/>
    <path stroke="null" d="m1638.67292,340.749c0.66983,0.677 0.66983,1.79 0,2.467c-0.67873,0.678 -1.76943,0.678 -2.43926,0c-0.67971,-0.687 -0.67971,-1.79 0,-2.467c0.67971,-0.678 1.76943,-0.678 2.43926,0z" fill="#7166F0" id="svg_211"/>
    <path stroke="null" d="m1632.01509,347.494c0.67873,0.677 0.67873,1.79 0,2.467c-0.66983,0.678 -1.77042,0.678 -2.44025,0c-0.66983,-0.677 -0.66983,-1.79 0,-2.467c0.66983,-0.687 1.76054,-0.687 2.44025,0z" fill="#7166F0" id="svg_212"/>
    <path stroke="null" d="m1625.34639,354.238c0.67873,0.678 0.67873,1.791 0,2.468c-0.67971,0.677 -1.77042,0.677 -2.44025,0c-0.67873,-0.677 -0.67873,-1.79 0,-2.468c0.66983,-0.687 1.76054,-0.687 2.44025,0z" fill="#7166F0" id="svg_213"/>
    <path stroke="null" d="m1700.32825,288.504c0.66885,0.687 0.66885,1.79 0,2.467c-0.67971,0.678 -1.77042,0.678 -2.44025,0c-0.66983,-0.677 -0.66983,-1.79 0,-2.467c0.66983,-0.687 1.76054,-0.687 2.44025,0z" fill="#7166F0" id="svg_214"/>
    <path stroke="null" d="m1693.66153,295.239c0.67971,0.677 0.67971,1.79 0,2.468c-0.66983,0.687 -1.76943,0.687 -2.43926,0c-0.67971,-0.678 -0.67971,-1.791 0,-2.468c0.67873,-0.677 1.76943,-0.677 2.43926,0z" fill="#7166F0" id="svg_215"/>
    <path stroke="null" d="m1687.00568,301.984c0.66983,0.677 0.66983,1.79 0,2.467c-0.67873,0.687 -1.76943,0.687 -2.43926,0c-0.67971,-0.677 -0.67971,-1.79 0,-2.467c0.66983,-0.678 1.76054,-0.678 2.43926,0z" fill="#7166F0" id="svg_216"/>
    <path stroke="null" d="m1680.33698,308.728c0.66983,0.678 0.66983,1.791 0,2.468c-0.67873,0.677 -1.76943,0.677 -2.43926,0c-0.66983,-0.677 -0.66983,-1.79 0,-2.468c0.66983,-0.687 1.76054,-0.687 2.43926,0z" fill="#7166F0" id="svg_217"/>
    <path stroke="null" d="m1673.66531,315.473c0.67873,0.687 0.67873,1.79 0,2.468c-0.66983,0.677 -1.77042,0.677 -2.43926,0c-0.67971,-0.678 -0.67971,-1.791 0,-2.468c0.66885,-0.687 1.76943,-0.687 2.43926,0z" fill="#7166F0" id="svg_218"/>
    <path stroke="null" d="m1667.00156,322.208c0.66983,0.687 0.66983,1.79 0,2.468c-0.67873,0.687 -1.76943,0.687 -2.43926,0c-0.67971,-0.678 -0.67971,-1.79 0,-2.468c0.67873,-0.677 1.76943,-0.677 2.43926,0z" fill="#7166F0" id="svg_219"/>
    <path stroke="null" d="m1660.34076,328.953c0.67971,0.677 0.67971,1.79 0,2.467c-0.66885,0.688 -1.76943,0.688 -2.43926,0c-0.66983,-0.677 -0.66983,-1.79 0,-2.467c0.66983,-0.678 1.76054,-0.678 2.43926,0z" fill="#7166F0" id="svg_220"/>
    <path stroke="null" d="m1653.67404,335.698c0.67971,0.677 0.67971,1.79 0,2.467c-0.66885,0.678 -1.76943,0.678 -2.43926,0c-0.67873,-0.677 -0.67873,-1.79 0,-2.467c0.66983,-0.687 1.77042,-0.687 2.43926,0z" fill="#7166F0" id="svg_221"/>
    <path stroke="null" d="m1647.00534,342.433c0.66983,0.687 0.66983,1.79 0,2.467c-0.67971,0.678 -1.77042,0.678 -2.43926,0c-0.67971,-0.677 -0.67971,-1.79 0,-2.467c0.66885,-0.678 1.76943,-0.678 2.43926,0z" fill="#7166F0" id="svg_222"/>
    <path stroke="null" d="m1640.33664,349.177c0.67971,0.678 0.67971,1.791 0,2.468c-0.66885,0.687 -1.76943,0.687 -2.43926,0c-0.66983,-0.677 -0.66983,-1.79 0,-2.468c0.67971,-0.677 1.77042,-0.677 2.43926,0z" fill="#7166F0" id="svg_223"/>
    <path stroke="null" d="m1633.67782,355.922c0.67971,0.677 0.67971,1.79 0,2.468c-0.67873,0.677 -1.76943,0.677 -2.43926,0c-0.67971,-0.678 -0.67971,-1.791 0,-2.468c0.66983,-0.687 1.76054,-0.687 2.43926,0z" fill="#7166F0" id="svg_224"/>
    <path stroke="null" d="m1627.01307,362.667c0.66885,0.678 0.66885,1.79 0,2.468c-0.67971,0.677 -1.77042,0.677 -2.44025,0c-0.66983,-0.678 -0.66983,-1.79 0,-2.468c0.66983,-0.687 1.77042,-0.687 2.44025,0z" fill="#7166F0" id="svg_225"/>
    <path stroke="null" d="m1701.99395,296.932c0.67873,0.687 0.67873,1.79 0,2.468c-0.66983,0.677 -1.77042,0.677 -2.44025,0c-0.67873,-0.687 -0.67873,-1.791 0,-2.468c0.66983,-0.687 1.77042,-0.687 2.44025,0z" fill="#7166F0" id="svg_226"/>
    <path stroke="null" d="m1695.33019,303.667c0.66983,0.678 0.66983,1.79 0,2.468c-0.67971,0.687 -1.77042,0.687 -2.43926,0c-0.67971,-0.678 -0.67971,-1.79 0,-2.468c0.67873,-0.677 1.76943,-0.677 2.43926,0z" fill="#7166F0" id="svg_227"/>
    <path stroke="null" d="m1688.66939,310.412c0.66983,0.677 0.66983,1.79 0,2.468c-0.67971,0.687 -1.77042,0.687 -2.44025,0c-0.66885,-0.678 -0.66885,-1.791 0,-2.468c0.66983,-0.677 1.76054,-0.677 2.44025,0z" fill="#7166F0" id="svg_228"/>
    <path stroke="null" d="m1681.99674,317.157c0.67971,0.677 0.67971,1.79 0,2.467c-0.66885,0.678 -1.76943,0.678 -2.43926,0c-0.67873,-0.677 -0.67873,-1.79 0,-2.467c0.66983,-0.687 1.77042,-0.687 2.43926,0z" fill="#7166F0" id="svg_229"/>
    <path stroke="null" d="m1674.1178,326.872c-0.9514,0 -1.72201,-0.78 -1.72201,-1.741c0,-0.962 0.77061,-1.742 1.72201,-1.742c0.9514,0 1.72201,0.78 1.72201,1.742c0,0.961 -0.77061,1.741 -1.72201,1.741z" fill="#7166F0" id="svg_230"/>
    <path stroke="null" d="m1668.67515,330.637c0.67971,0.677 0.67971,1.79 0,2.467c-0.66983,0.678 -1.76943,0.678 -2.43926,0c-0.66983,-0.687 -0.66983,-1.79 0,-2.467c0.66983,-0.678 1.75955,-0.678 2.43926,0z" fill="#7166F0" id="svg_231"/>
    <path stroke="null" d="m1662.00645,337.381c0.67971,0.678 0.67971,1.79 0,2.468c-0.67971,0.677 -1.76943,0.677 -2.43926,0c-0.67971,-0.678 -0.67971,-1.79 0,-2.468c0.66983,-0.687 1.75955,-0.687 2.43926,0z" fill="#7166F0" id="svg_232"/>
    <path stroke="null" d="m1655.33677,344.126c0.66983,0.678 0.66983,1.79 0,2.468c-0.67873,0.677 -1.76943,0.677 -2.43926,0c-0.66983,-0.678 -0.66983,-1.79 0,-2.468c0.66983,-0.687 1.77042,-0.687 2.43926,0z" fill="#7166F0" id="svg_233"/>
    <path stroke="null" d="m1647.45288,353.842c-0.9514,0 -1.72201,-0.78 -1.72201,-1.742c0,-0.962 0.77061,-1.742 1.72201,-1.742c0.95041,0 1.72201,0.78 1.72201,1.742c0,0.962 -0.77159,1.742 -1.72201,1.742z" fill="#7166F0" id="svg_234"/>
    <path stroke="null" d="m1642.01024,357.606c0.67873,0.677 0.67873,1.79 0,2.467c-0.66983,0.687 -1.77042,0.687 -2.44025,0c-0.67873,-0.677 -0.67873,-1.79 0,-2.467c0.66983,-0.678 1.76054,-0.678 2.44025,0z" fill="#7166F0" id="svg_235"/>
    <path stroke="null" d="m1635.34648,364.351c0.66983,0.677 0.66983,1.79 0,2.467c-0.67873,0.678 -1.76943,0.678 -2.43926,0c-0.66983,-0.677 -0.66983,-1.79 0,-2.467c0.66983,-0.687 1.76054,-0.687 2.43926,0z" fill="#7166F0" id="svg_236"/>
    <path stroke="null" d="m1710.3313,298.616c0.67971,0.677 0.67971,1.79 0,2.468c-0.66983,0.677 -1.76943,0.677 -2.43926,0c-0.67971,-0.678 -0.67971,-1.791 0,-2.468c0.66983,-0.687 1.76943,-0.687 2.43926,0z" fill="#7166F0" id="svg_237"/>
    <path stroke="null" d="m1703.6626,305.351c0.66885,0.678 0.66885,1.791 0,2.468c-0.67971,0.677 -1.77042,0.677 -2.44025,0c-0.67873,-0.687 -0.67873,-1.79 0,-2.468c0.67971,-0.677 1.77042,-0.677 2.44025,0z" fill="#7166F0" id="svg_238"/>
    <path stroke="null" d="m1697.00378,312.096c0.67873,0.677 0.67873,1.79 0,2.468c-0.66983,0.677 -1.77042,0.677 -2.43926,0c-0.66983,-0.678 -0.66983,-1.791 0,-2.468c0.66885,-0.677 1.75955,-0.677 2.43926,0z" fill="#7166F0" id="svg_239"/>
    <path stroke="null" d="m1690.33508,318.84c0.67873,0.678 0.67873,1.791 0,2.468c-0.66983,0.677 -1.77042,0.677 -2.43926,0c-0.67971,-0.677 -0.67971,-1.79 0,-2.468c0.66885,-0.687 1.75955,-0.687 2.43926,0z" fill="#7166F0" id="svg_240"/>
    <path stroke="null" d="m1683.6654,325.585c0.66983,0.687 0.66983,1.791 0,2.468c-0.67873,0.677 -1.76943,0.677 -2.43926,0c-0.67971,-0.677 -0.67971,-1.79 0,-2.468c0.66983,-0.687 1.76943,-0.687 2.43926,0z" fill="#7166F0" id="svg_241"/>
    <path stroke="null" d="m1676.99966,332.321c0.67873,0.677 0.67873,1.79 0,2.467c-0.66983,0.678 -1.77042,0.678 -2.43926,0c-0.66983,-0.687 -0.66983,-1.79 0,-2.467c0.67873,-0.678 1.76943,-0.678 2.43926,0z" fill="#7166F0" id="svg_242"/>
    <path stroke="null" d="m1670.33887,339.065c0.67873,0.678 0.67873,1.79 0,2.468c-0.67971,0.687 -1.77042,0.687 -2.44025,0c-0.67873,-0.678 -0.67873,-1.79 0,-2.468c0.66983,-0.677 1.76054,-0.677 2.44025,0z" fill="#7166F0" id="svg_243"/>
    <path stroke="null" d="m1663.66918,345.81c0.66983,0.677 0.66983,1.79 0,2.467c-0.67873,0.678 -1.76943,0.678 -2.43926,0c-0.66983,-0.677 -0.66983,-1.79 0,-2.467c0.66983,-0.687 1.76943,-0.687 2.43926,0z" fill="#7166F0" id="svg_244"/>
    <path stroke="null" d="m1657.00345,352.545c0.67873,0.677 0.67873,1.79 0,2.467c-0.66983,0.678 -1.77042,0.678 -2.44025,0c-0.67873,-0.677 -0.67873,-1.79 0,-2.467c0.67971,-0.677 1.77042,-0.677 2.44025,0z" fill="#7166F0" id="svg_245"/>
    <path stroke="null" d="m1650.34759,359.29c0.67971,0.677 0.67971,1.79 0,2.467c-0.67873,0.678 -1.76943,0.678 -2.43926,0c-0.67971,-0.687 -0.67971,-1.79 0,-2.467c0.66983,-0.678 1.76054,-0.678 2.43926,0z" fill="#7166F0" id="svg_246"/>
    <path stroke="null" d="m1643.67692,366.034c0.66983,0.678 0.66983,1.791 0,2.468c-0.67971,0.687 -1.77042,0.687 -2.44025,0c-0.66885,-0.677 -0.66885,-1.79 0,-2.468c0.66983,-0.687 1.76054,-0.687 2.44025,0z" fill="#7166F0" id="svg_247"/>
    <path stroke="null" d="m1637.01019,372.779c0.67971,0.677 0.67971,1.79 0,2.468c-0.66983,0.677 -1.76943,0.677 -2.43926,0c-0.67971,-0.678 -0.67971,-1.791 0,-2.468c0.66983,-0.687 1.76943,-0.687 2.43926,0z" fill="#7166F0" id="svg_248"/>
    <path stroke="null" d="m1711.99403,307.044c0.66983,0.678 0.66983,1.791 0,2.468c-0.67873,0.677 -1.76943,0.677 -2.43926,0c-0.67971,-0.677 -0.67971,-1.79 0,-2.468c0.66983,-0.687 1.76943,-0.687 2.43926,0z" fill="#7166F0" id="svg_249"/>
    <path stroke="null" d="m1705.3283,313.78c0.67873,0.677 0.67873,1.79 0,2.467c-0.66983,0.677 -1.77042,0.677 -2.44025,0c-0.66983,-0.687 -0.66983,-1.79 0,-2.467c0.67971,-0.678 1.77042,-0.678 2.44025,0z" fill="#7166F0" id="svg_250"/>
    <path stroke="null" d="m1698.66651,320.524c0.67971,0.678 0.67971,1.79 0,2.468c-0.67873,0.687 -1.76943,0.687 -2.43926,0c-0.67873,-0.678 -0.67873,-1.79 0,-2.468c0.66983,-0.677 1.76054,-0.677 2.43926,0z" fill="#7166F0" id="svg_251"/>
    <path stroke="null" d="m1691.99781,327.269c0.66983,0.677 0.66983,1.79 0,2.468c-0.67971,0.677 -1.77042,0.677 -2.43926,0c-0.66983,-0.678 -0.66983,-1.791 0,-2.468c0.66885,-0.687 1.76943,-0.687 2.43926,0z" fill="#7166F0" id="svg_252"/>
    <path stroke="null" d="m1685.33109,334.004c0.67971,0.678 0.67971,1.79 0,2.468c-0.66885,0.677 -1.76943,0.677 -2.43926,0c-0.67873,-0.678 -0.67873,-1.79 0,-2.468c0.67971,-0.677 1.77042,-0.677 2.43926,0z" fill="#7166F0" id="svg_253"/>
    <path stroke="null" d="m1678.6703,340.749c0.67971,0.677 0.67971,1.79 0,2.467c-0.67873,0.678 -1.76943,0.678 -2.43926,0c-0.67971,-0.687 -0.67971,-1.79 0,-2.467c0.66983,-0.678 1.76054,-0.678 2.43926,0z" fill="#7166F0" id="svg_254"/>
    <path stroke="null" d="m1670.77752,350.474c-0.9514,0 -1.72201,-0.78 -1.72201,-1.742c0,-0.962 0.77061,-1.742 1.72201,-1.742c0.9514,0 1.72201,0.78 1.72201,1.742c0,0.962 -0.77061,1.742 -1.72201,1.742z" fill="#7166F0" id="svg_255"/>
    <path stroke="null" d="m1665.33487,354.238c0.67971,0.678 0.67971,1.79 0,2.468c-0.66983,0.677 -1.76943,0.677 -2.43926,0c-0.67971,-0.678 -0.67971,-1.79 0,-2.468c0.66983,-0.687 1.76943,-0.687 2.43926,0z" fill="#7166F0" id="svg_256"/>
    <path stroke="null" d="m1658.66618,360.973c0.66885,0.678 0.66885,1.791 0,2.468c-0.67971,0.677 -1.77042,0.677 -2.44025,0c-0.67873,-0.677 -0.67873,-1.79 0,-2.468c0.67971,-0.677 1.77042,-0.677 2.44025,0z" fill="#7166F0" id="svg_257"/>
    <path stroke="null" d="m1652.00834,367.718c0.66983,0.677 0.66983,1.79 0,2.468c-0.67873,0.687 -1.76943,0.687 -2.43926,0c-0.66983,-0.678 -0.66983,-1.791 0,-2.468c0.66983,-0.677 1.76054,-0.677 2.43926,0z" fill="#7166F0" id="svg_258"/>
    <path stroke="null" d="m1645.34459,374.463c0.67873,0.677 0.67873,1.79 0,2.468c-0.66983,0.677 -1.77042,0.677 -2.44025,0c-0.67873,-0.678 -0.67873,-1.791 0,-2.468c0.66983,-0.687 1.77042,-0.687 2.44025,0z" fill="#7166F0" id="svg_259"/>
    <path stroke="null" d="m1720.32645,308.728c0.66983,0.678 0.66983,1.791 0,2.468c-0.67971,0.677 -1.77042,0.677 -2.44025,0c-0.67873,-0.677 -0.67873,-1.79 0,-2.468c0.66983,-0.687 1.77042,-0.687 2.44025,0z" fill="#7166F0" id="svg_260"/>
    <path stroke="null" d="m1713.65972,315.473c0.67971,0.687 0.67971,1.79 0,2.468c-0.66983,0.677 -1.76943,0.677 -2.43926,0c-0.66983,-0.678 -0.66983,-1.791 0,-2.468c0.67873,-0.687 1.76943,-0.687 2.43926,0z" fill="#7166F0" id="svg_261"/>
    <path stroke="null" d="m1706.99893,322.208c0.67971,0.687 0.67971,1.79 0,2.468c-0.67971,0.687 -1.76943,0.687 -2.43926,0c-0.67971,-0.678 -0.67971,-1.79 0,-2.468c0.66983,-0.677 1.75955,-0.677 2.43926,0z" fill="#7166F0" id="svg_262"/>
    <path stroke="null" d="m1700.32924,328.953c0.66983,0.677 0.66983,1.79 0,2.467c-0.67873,0.688 -1.76943,0.688 -2.43926,0c-0.66983,-0.677 -0.66983,-1.79 0,-2.467c0.66983,-0.678 1.76054,-0.678 2.43926,0z" fill="#7166F0" id="svg_263"/>
    <path stroke="null" d="m1693.66351,335.697c0.67873,0.678 0.67873,1.791 0,2.468c-0.66983,0.677 -1.76943,0.677 -2.43926,0c-0.67971,-0.677 -0.67971,-1.79 0,-2.468c0.67873,-0.687 1.76943,-0.687 2.43926,0z" fill="#7166F0" id="svg_264"/>
    <path stroke="null" d="m1687.00172,342.433c0.66983,0.687 0.66983,1.79 0,2.467c-0.67873,0.678 -1.76943,0.678 -2.43926,0c-0.67971,-0.677 -0.67971,-1.79 0,-2.467c0.66983,-0.678 1.76054,-0.678 2.43926,0z" fill="#7166F0" id="svg_265"/>
    <path stroke="null" d="m1680.33895,349.177c0.66983,0.678 0.66983,1.791 0,2.468c-0.67873,0.687 -1.76943,0.687 -2.43926,0c-0.66983,-0.677 -0.66983,-1.79 0,-2.468c0.66983,-0.677 1.76054,-0.677 2.43926,0z" fill="#7166F0" id="svg_266"/>
    <path stroke="null" d="m1673.66729,355.922c0.67873,0.677 0.67873,1.79 0,2.468c-0.66983,0.677 -1.77042,0.677 -2.44025,0c-0.67873,-0.678 -0.67873,-1.791 0,-2.468c0.66983,-0.687 1.77042,-0.687 2.44025,0z" fill="#7166F0" id="svg_267"/>
    <path stroke="null" d="m1666.9976,362.667c0.66983,0.678 0.66983,1.79 0,2.468c-0.67873,0.677 -1.76943,0.677 -2.43926,0c-0.67971,-0.678 -0.67971,-1.79 0,-2.468c0.67873,-0.687 1.76943,-0.687 2.43926,0z" fill="#7166F0" id="svg_268"/>
    <path stroke="null" d="m1660.3378,369.402c0.67873,0.687 0.67873,1.79 0,2.468c-0.66983,0.677 -1.77042,0.677 -2.44025,0c-0.66983,-0.687 -0.66983,-1.791 0,-2.468c0.66983,-0.677 1.76054,-0.677 2.44025,0z" fill="#7166F0" id="svg_269"/>
    <path stroke="null" d="m1653.67601,376.147c0.67971,0.677 0.67971,1.79 0,2.467c-0.66885,0.687 -1.76943,0.687 -2.43926,0c-0.67873,-0.677 -0.67873,-1.79 0,-2.467c0.66983,-0.678 1.77042,-0.678 2.43926,0z" fill="#7166F0" id="svg_270"/>
    <path stroke="null" d="m1647.00534,382.891c0.66983,0.678 0.66983,1.79 0,2.468c-0.67971,0.687 -1.77042,0.687 -2.43926,0c-0.67971,-0.678 -0.67971,-1.79 0,-2.468c0.66885,-0.687 1.76943,-0.687 2.43926,0z" fill="#7166F0" id="svg_271"/>
    <path stroke="null" d="m1721.99016,317.157c0.67873,0.677 0.67873,1.79 0,2.467c-0.66983,0.678 -1.77042,0.678 -2.43926,0c-0.66983,-0.677 -0.66983,-1.79 0,-2.467c0.67873,-0.687 1.76943,-0.687 2.43926,0z" fill="#7166F0" id="svg_272"/>
    <path stroke="null" d="m1715.32937,323.892c0.67873,0.687 0.67873,1.79 0,2.467c-0.67971,0.678 -1.77042,0.678 -2.44025,0c-0.67873,-0.687 -0.67873,-1.79 0,-2.467c0.66983,-0.678 1.76054,-0.678 2.44025,0z" fill="#7166F0" id="svg_273"/>
    <path stroke="null" d="m1708.66561,330.636c0.66983,0.678 0.66983,1.791 0,2.468c-0.67971,0.677 -1.76943,0.677 -2.43926,0c-0.66983,-0.687 -0.66983,-1.79 0,-2.468c0.66983,-0.677 1.75955,-0.677 2.43926,0z" fill="#7166F0" id="svg_274"/>
    <path stroke="null" d="m1701.99395,337.382c0.67873,0.677 0.67873,1.79 0,2.467c-0.66983,0.677 -1.77042,0.677 -2.44025,0c-0.67873,-0.677 -0.67873,-1.79 0,-2.467c0.66983,-0.688 1.77042,-0.688 2.44025,0z" fill="#7166F0" id="svg_275"/>
    <path stroke="null" d="m1695.33019,344.126c0.66983,0.678 0.66983,1.79 0,2.468c-0.67971,0.677 -1.77042,0.677 -2.43926,0c-0.67971,-0.678 -0.67971,-1.79 0,-2.468c0.67873,-0.687 1.76943,-0.687 2.43926,0z" fill="#7166F0" id="svg_276"/>
    <path stroke="null" d="m1688.66939,350.861c0.66983,0.687 0.66983,1.791 0,2.468c-0.67971,0.677 -1.77042,0.677 -2.44025,0c-0.66885,-0.687 -0.66885,-1.79 0,-2.468c0.66983,-0.677 1.76054,-0.677 2.44025,0z" fill="#7166F0" id="svg_277"/>
    <path stroke="null" d="m1682.00267,357.606c0.67971,0.677 0.67971,1.79 0,2.468c-0.66983,0.687 -1.76943,0.687 -2.43926,0c-0.67971,-0.678 -0.67971,-1.791 0,-2.468c0.66983,-0.677 1.76943,-0.677 2.43926,0z" fill="#7166F0" id="svg_278"/>
    <path stroke="null" d="m1675.33397,364.351c0.66983,0.677 0.66983,1.79 0,2.467c-0.67971,0.678 -1.77042,0.678 -2.44025,0c-0.67873,-0.677 -0.67873,-1.79 0,-2.467c0.67971,-0.687 1.77042,-0.687 2.44025,0z" fill="#7166F0" id="svg_279"/>
    <path stroke="null" d="m1668.67515,371.086c0.67971,0.677 0.67971,1.79 0,2.468c-0.66983,0.677 -1.76943,0.677 -2.43926,0c-0.66983,-0.678 -0.66983,-1.791 0,-2.468c0.66983,-0.677 1.75955,-0.677 2.43926,0z" fill="#7166F0" id="svg_280"/>
    <path stroke="null" d="m1662.00645,377.831c0.67971,0.677 0.67971,1.79 0,2.467c-0.67971,0.678 -1.76943,0.678 -2.43926,0c-0.67971,-0.687 -0.67971,-1.79 0,-2.467c0.66983,-0.678 1.75955,-0.678 2.43926,0z" fill="#7166F0" id="svg_281"/>
    <path stroke="null" d="m1655.33677,384.575c0.66983,0.678 0.66983,1.791 0,2.468c-0.67873,0.687 -1.76943,0.687 -2.43926,0c-0.66983,-0.677 -0.66983,-1.79 0,-2.468c0.66983,-0.687 1.77042,-0.687 2.43926,0z" fill="#7166F0" id="svg_282"/>
    <path stroke="null" d="m1729.10344,321.812c-0.95041,0 -1.72201,-0.78 -1.72201,-1.742c0,-0.962 0.77159,-1.742 1.72201,-1.742c0.9514,0 1.72201,0.78 1.72201,1.742c0,0.962 -0.77061,1.742 -1.72201,1.742z" fill="#7166F0" id="svg_283"/>
    <path stroke="null" d="m1723.65289,325.586c0.67971,0.687 0.67971,1.79 0,2.467c-0.67873,0.678 -1.76943,0.678 -2.43926,0c-0.67873,-0.677 -0.67873,-1.79 0,-2.467c0.67971,-0.687 1.77042,-0.687 2.43926,0z" fill="#7166F0" id="svg_284"/>
    <path stroke="null" d="m1716.9921,332.321c0.66983,0.677 0.66983,1.79 0,2.467c-0.67971,0.678 -1.77042,0.678 -2.44025,0c-0.66885,-0.687 -0.66885,-1.79 0,-2.467c0.66983,-0.678 1.76054,-0.678 2.44025,0z" fill="#7166F0" id="svg_285"/>
    <path stroke="null" d="m1710.3234,339.065c0.67971,0.678 0.67971,1.79 0,2.468c-0.66983,0.687 -1.76943,0.687 -2.43926,0c-0.67971,-0.678 -0.67971,-1.79 0,-2.468c0.66983,-0.677 1.76943,-0.677 2.43926,0z" fill="#7166F0" id="svg_286"/>
    <path stroke="null" d="m1703.66063,345.81c0.66885,0.677 0.66885,1.79 0,2.467c-0.67971,0.678 -1.77042,0.678 -2.44025,0c-0.67873,-0.677 -0.67873,-1.79 0,-2.467c0.67971,-0.687 1.77042,-0.687 2.44025,0z" fill="#7166F0" id="svg_287"/>
    <path stroke="null" d="m1697.00181,352.545c0.67873,0.678 0.67873,1.79 0,2.468c-0.66983,0.677 -1.77042,0.677 -2.43926,0c-0.66983,-0.678 -0.66983,-1.79 0,-2.468c0.66885,-0.677 1.75955,-0.677 2.43926,0z" fill="#7166F0" id="svg_288"/>
    <path stroke="null" d="m1690.32916,359.29c0.67873,0.677 0.67873,1.79 0,2.467c-0.66983,0.678 -1.76943,0.678 -2.43926,0c-0.67971,-0.687 -0.67971,-1.79 0,-2.467c0.66983,-0.678 1.75955,-0.678 2.43926,0z" fill="#7166F0" id="svg_289"/>
    <path stroke="null" d="m1683.66342,366.034c0.66983,0.678 0.66983,1.791 0,2.468c-0.67873,0.687 -1.76943,0.687 -2.43926,0c-0.67873,-0.677 -0.67873,-1.79 0,-2.468c0.66983,-0.687 1.76943,-0.687 2.43926,0z" fill="#7166F0" id="svg_290"/>
    <path stroke="null" d="m1676.99769,372.779c0.67873,0.678 0.67873,1.791 0,2.468c-0.66983,0.677 -1.77042,0.677 -2.43926,0c-0.66983,-0.677 -0.66983,-1.79 0,-2.468c0.67873,-0.687 1.76943,-0.687 2.43926,0z" fill="#7166F0" id="svg_291"/>
    <path stroke="null" d="m1670.33689,379.514c0.67873,0.687 0.67873,1.791 0,2.468c-0.67971,0.677 -1.77042,0.677 -2.44025,0c-0.67873,-0.677 -0.67873,-1.79 0,-2.468c0.66983,-0.677 1.76054,-0.677 2.44025,0z" fill="#7166F0" id="svg_292"/>
    <path stroke="null" d="m1663.66721,386.259c0.66983,0.687 0.66983,1.79 0,2.468c-0.67873,0.677 -1.76943,0.677 -2.43926,0c-0.66983,-0.687 -0.66983,-1.79 0,-2.468c0.66983,-0.677 1.76943,-0.677 2.43926,0z" fill="#7166F0" id="svg_293"/>
    <path stroke="null" d="m1657.00147,393.004c0.67873,0.677 0.67873,1.79 0,2.467c-0.66983,0.678 -1.77042,0.678 -2.44025,0c-0.67873,-0.677 -0.67873,-1.79 0,-2.467c0.67971,-0.687 1.77042,-0.687 2.44025,0z" fill="#7166F0" id="svg_294"/>
    <path stroke="null" d="m1731.98531,327.269c0.67971,0.677 0.67971,1.79 0,2.468c-0.67873,0.677 -1.76943,0.677 -2.43926,0c-0.67971,-0.678 -0.67971,-1.791 0,-2.468c0.67873,-0.687 1.76943,-0.687 2.43926,0z" fill="#7166F0" id="svg_295"/>
    <path stroke="null" d="m1725.32945,334.004c0.66983,0.678 0.66983,1.79 0,2.468c-0.67873,0.677 -1.76943,0.677 -2.43926,0c-0.66983,-0.678 -0.66983,-1.79 0,-2.468c0.66983,-0.677 1.76054,-0.677 2.43926,0z" fill="#7166F0" id="svg_296"/>
    <path stroke="null" d="m1718.66372,340.749c0.67873,0.677 0.67873,1.79 0,2.467c-0.66983,0.678 -1.77042,0.678 -2.44025,0c-0.67873,-0.687 -0.67873,-1.79 0,-2.467c0.66983,-0.678 1.76054,-0.678 2.44025,0z" fill="#7166F0" id="svg_297"/>
    <path stroke="null" d="m1710.77786,350.474c-0.95041,0 -1.72201,-0.78 -1.72201,-1.742c0,-0.962 0.77159,-1.742 1.72201,-1.742c0.9514,0 1.72201,0.78 1.72201,1.742c0,0.962 -0.77061,1.742 -1.72201,1.742z" fill="#7166F0" id="svg_298"/>
    <path stroke="null" d="m1704.10916,357.209c-0.95041,0 -1.72201,-0.78 -1.72201,-1.742c0,-0.962 0.77159,-1.741 1.72201,-1.741c0.9514,0 1.72201,0.779 1.72201,1.741c0,0.962 -0.77061,1.742 -1.72201,1.742z" fill="#7166F0" id="svg_299"/>
    <path stroke="null" d="m1698.66651,360.973c0.67971,0.678 0.67971,1.791 0,2.468c-0.67873,0.677 -1.76943,0.677 -2.43926,0c-0.67873,-0.677 -0.67873,-1.79 0,-2.468c0.66983,-0.677 1.76054,-0.677 2.43926,0z" fill="#7166F0" id="svg_300"/>
    <path stroke="null" d="m1691.99781,367.718c0.66983,0.677 0.66983,1.79 0,2.468c-0.67971,0.687 -1.77042,0.687 -2.43926,0c-0.66983,-0.678 -0.66983,-1.791 0,-2.468c0.66885,-0.677 1.76943,-0.677 2.43926,0z" fill="#7166F0" id="svg_301"/>
    <path stroke="null" d="m1685.32911,374.463c0.67971,0.677 0.67971,1.79 0,2.467c-0.66885,0.678 -1.76943,0.678 -2.43926,0c-0.67873,-0.677 -0.67873,-1.79 0,-2.467c0.67971,-0.687 1.77042,-0.687 2.43926,0z" fill="#7166F0" id="svg_302"/>
    <path stroke="null" d="m1678.66832,381.208c0.67971,0.677 0.67971,1.79 0,2.467c-0.67873,0.678 -1.76943,0.678 -2.43926,0c-0.67971,-0.677 -0.67971,-1.79 0,-2.467c0.66983,-0.687 1.76054,-0.687 2.43926,0z" fill="#7166F0" id="svg_303"/>
    <path stroke="null" d="m1671.99962,387.943c0.66983,0.687 0.66983,1.79 0,2.467c-0.67971,0.678 -1.77042,0.678 -2.44025,0c-0.66885,-0.677 -0.66885,-1.79 0,-2.467c0.66983,-0.678 1.76054,-0.678 2.44025,0z" fill="#7166F0" id="svg_304"/>
    <path stroke="null" d="m1665.33487,394.687c0.67971,0.678 0.67971,1.791 0,2.468c-0.66983,0.677 -1.76943,0.677 -2.43926,0c-0.67971,-0.687 -0.67971,-1.79 0,-2.468c0.66983,-0.687 1.76943,-0.687 2.43926,0z" fill="#7166F0" id="svg_305"/>
    <path stroke="null" d="m1740.31575,328.953c0.67873,0.677 0.67873,1.79 0,2.467c-0.67971,0.688 -1.77042,0.688 -2.44025,0c-0.67873,-0.677 -0.67873,-1.79 0,-2.467c0.66983,-0.678 1.77042,-0.678 2.44025,0z" fill="#7166F0" id="svg_306"/>
    <path stroke="null" d="m1733.65989,335.698c0.66983,0.677 0.66983,1.79 0,2.467c-0.67971,0.678 -1.77042,0.678 -2.43926,0c-0.66983,-0.677 -0.66983,-1.79 0,-2.467c0.66885,-0.687 1.75955,-0.687 2.43926,0z" fill="#7166F0" id="svg_307"/>
    <path stroke="null" d="m1726.99317,342.433c0.67971,0.687 0.67971,1.79 0,2.467c-0.66983,0.678 -1.76943,0.678 -2.43926,0c-0.67873,-0.677 -0.67873,-1.79 0,-2.467c0.66983,-0.678 1.76054,-0.678 2.43926,0z" fill="#7166F0" id="svg_308"/>
    <path stroke="null" d="m1720.32249,349.177c0.66983,0.678 0.66983,1.791 0,2.468c-0.67971,0.687 -1.77042,0.687 -2.43926,0c-0.67971,-0.677 -0.67971,-1.79 0,-2.468c0.66885,-0.677 1.76943,-0.677 2.43926,0z" fill="#7166F0" id="svg_309"/>
    <path stroke="null" d="m1713.65577,355.922c0.67971,0.678 0.67971,1.79 0,2.468c-0.66983,0.677 -1.76943,0.677 -2.43926,0c-0.66983,-0.678 -0.66983,-1.79 0,-2.468c0.67971,-0.687 1.76943,-0.687 2.43926,0z" fill="#7166F0" id="svg_310"/>
    <path stroke="null" d="m1706.99695,362.667c0.67971,0.677 0.67971,1.79 0,2.467c-0.67873,0.678 -1.76943,0.678 -2.43926,0c-0.67971,-0.677 -0.67971,-1.79 0,-2.467c0.66983,-0.687 1.76054,-0.687 2.43926,0z" fill="#7166F0" id="svg_311"/>
    <path stroke="null" d="m1700.32628,369.402c0.66885,0.687 0.66885,1.79 0,2.468c-0.67971,0.677 -1.77042,0.677 -2.44025,0c-0.66983,-0.687 -0.66983,-1.791 0,-2.468c0.66983,-0.677 1.76054,-0.677 2.44025,0z" fill="#7166F0" id="svg_312"/>
    <path stroke="null" d="m1693.65955,376.147c0.67971,0.677 0.67971,1.79 0,2.467c-0.66983,0.687 -1.76943,0.687 -2.43926,0c-0.67971,-0.677 -0.67971,-1.79 0,-2.467c0.67873,-0.678 1.76943,-0.678 2.43926,0z" fill="#7166F0" id="svg_313"/>
    <path stroke="null" d="m1687.0037,382.892c0.66983,0.677 0.66983,1.79 0,2.467c-0.67873,0.687 -1.76943,0.687 -2.43926,0c-0.67971,-0.677 -0.67971,-1.79 0,-2.467c0.66983,-0.687 1.76054,-0.687 2.43926,0z" fill="#7166F0" id="svg_314"/>
    <path stroke="null" d="m1680.335,389.627c0.66983,0.677 0.66983,1.79 0,2.467c-0.67873,0.678 -1.76943,0.678 -2.43926,0c-0.66983,-0.677 -0.66983,-1.79 0,-2.467c0.66983,-0.678 1.76054,-0.678 2.43926,0z" fill="#7166F0" id="svg_315"/>
    <path stroke="null" d="m1673.66334,396.371c0.67873,0.687 0.67873,1.791 0,2.468c-0.66983,0.677 -1.77042,0.677 -2.43926,0c-0.67971,-0.677 -0.67971,-1.79 0,-2.468c0.66885,-0.677 1.76943,-0.677 2.43926,0z" fill="#7166F0" id="svg_316"/>
    <path stroke="null" d="m1666.99958,403.116c0.66983,0.677 0.66983,1.79 0,2.467c-0.67873,0.688 -1.76943,0.688 -2.43926,0c-0.67971,-0.677 -0.67971,-1.79 0,-2.467c0.67873,-0.687 1.76943,-0.687 2.43926,0z" fill="#7166F0" id="svg_317"/>
    <path stroke="null" d="m1741.98045,337.382c0.67971,0.677 0.67971,1.79 0,2.467c-0.66983,0.677 -1.76943,0.677 -2.43926,0c-0.66983,-0.677 -0.66983,-1.79 0,-2.467c0.67873,-0.688 1.76943,-0.688 2.43926,0z" fill="#7166F0" id="svg_318"/>
    <path stroke="null" d="m1735.32558,344.126c0.67873,0.678 0.67873,1.79 0,2.468c-0.66983,0.677 -1.77042,0.677 -2.43926,0c-0.67971,-0.678 -0.67971,-1.79 0,-2.468c0.66885,-0.687 1.75955,-0.687 2.43926,0z" fill="#7166F0" id="svg_319"/>
    <path stroke="null" d="m1728.6559,350.861c0.66983,0.687 0.66983,1.791 0,2.468c-0.67873,0.677 -1.76943,0.677 -2.43926,0c-0.67873,-0.687 -0.67873,-1.79 0,-2.468c0.66983,-0.677 1.76943,-0.677 2.43926,0z" fill="#7166F0" id="svg_320"/>
    <path stroke="null" d="m1721.99016,357.606c0.67873,0.677 0.67873,1.79 0,2.468c-0.66983,0.687 -1.77042,0.687 -2.43926,0c-0.66983,-0.678 -0.66983,-1.791 0,-2.468c0.67873,-0.677 1.76943,-0.677 2.43926,0z" fill="#7166F0" id="svg_321"/>
    <path stroke="null" d="m1715.32937,364.351c0.67873,0.677 0.67873,1.79 0,2.467c-0.67971,0.678 -1.77042,0.678 -2.44025,0c-0.67873,-0.677 -0.67873,-1.79 0,-2.467c0.66983,-0.687 1.76054,-0.687 2.44025,0z" fill="#7166F0" id="svg_322"/>
    <path stroke="null" d="m1708.65968,371.086c0.66983,0.677 0.66983,1.79 0,2.468c-0.67873,0.677 -1.76943,0.677 -2.43926,0c-0.66983,-0.678 -0.66983,-1.791 0,-2.468c0.66983,-0.677 1.76054,-0.677 2.43926,0z" fill="#7166F0" id="svg_323"/>
    <path stroke="null" d="m1701.99395,377.831c0.67873,0.677 0.67873,1.79 0,2.467c-0.66983,0.678 -1.77042,0.678 -2.44025,0c-0.67873,-0.687 -0.67873,-1.79 0,-2.467c0.66983,-0.678 1.77042,-0.678 2.44025,0z" fill="#7166F0" id="svg_324"/>
    <path stroke="null" d="m1695.32426,384.575c0.66983,0.678 0.66983,1.791 0,2.468c-0.67873,0.687 -1.76943,0.687 -2.43926,0c-0.67971,-0.677 -0.67971,-1.79 0,-2.468c0.67873,-0.687 1.76943,-0.687 2.43926,0z" fill="#7166F0" id="svg_325"/>
    <path stroke="null" d="m1688.66939,391.32c0.66983,0.677 0.66983,1.79 0,2.468c-0.67971,0.677 -1.77042,0.677 -2.44025,0c-0.66885,-0.678 -0.66885,-1.791 0,-2.468c0.66983,-0.687 1.76054,-0.687 2.44025,0z" fill="#7166F0" id="svg_326"/>
    <path stroke="null" d="m1681.99674,398.055c0.67971,0.678 0.67971,1.79 0,2.468c-0.66885,0.677 -1.76943,0.677 -2.43926,0c-0.67873,-0.678 -0.67873,-1.79 0,-2.468c0.66983,-0.677 1.77042,-0.677 2.43926,0z" fill="#7166F0" id="svg_327"/>
    <path stroke="null" d="m1674.1178,407.78c-0.9514,0 -1.72201,-0.78 -1.72201,-1.742c0,-0.962 0.77061,-1.742 1.72201,-1.742c0.9514,0 1.72201,0.78 1.72201,1.742c0,0.962 -0.77061,1.742 -1.72201,1.742z" fill="#7166F0" id="svg_328"/>
    <path stroke="null" d="m1750.31879,339.065c0.67873,0.678 0.67873,1.79 0,2.468c-0.66983,0.687 -1.77042,0.687 -2.44025,0c-0.66885,-0.678 -0.66885,-1.79 0,-2.468c0.67971,-0.677 1.77042,-0.677 2.44025,0z" fill="#7166F0" id="svg_329"/>
    <path stroke="null" d="m1743.65701,345.81c0.66983,0.677 0.66983,1.79 0,2.467c-0.67971,0.678 -1.77042,0.678 -2.43926,0c-0.67971,-0.677 -0.67971,-1.79 0,-2.467c0.66885,-0.687 1.75955,-0.687 2.43926,0z" fill="#7166F0" id="svg_330"/>
    <path stroke="null" d="m1736.98831,352.545c0.66983,0.677 0.66983,1.79 0,2.467c-0.67971,0.678 -1.77042,0.678 -2.43926,0c-0.67971,-0.677 -0.67971,-1.79 0,-2.467c0.66885,-0.677 1.75955,-0.677 2.43926,0z" fill="#7166F0" id="svg_331"/>
    <path stroke="null" d="m1730.32159,359.29c0.67971,0.677 0.67971,1.79 0,2.467c-0.66885,0.678 -1.76943,0.678 -2.43926,0c-0.66983,-0.687 -0.66983,-1.79 0,-2.467c0.66983,-0.678 1.77042,-0.678 2.43926,0z" fill="#7166F0" id="svg_332"/>
    <path stroke="null" d="m1723.65289,366.034c0.67971,0.678 0.67971,1.791 0,2.468c-0.67873,0.687 -1.76943,0.687 -2.43926,0c-0.67873,-0.677 -0.67873,-1.79 0,-2.468c0.67971,-0.687 1.77042,-0.687 2.43926,0z" fill="#7166F0" id="svg_333"/>
    <path stroke="null" d="m1716.99802,372.779c0.66885,0.677 0.66885,1.79 0,2.468c-0.67971,0.677 -1.77042,0.677 -2.44025,0c-0.66983,-0.678 -0.66983,-1.791 0,-2.468c0.66983,-0.687 1.76054,-0.687 2.44025,0z" fill="#7166F0" id="svg_334"/>
    <path stroke="null" d="m1710.3313,379.514c0.67971,0.687 0.67971,1.791 0,2.468c-0.66983,0.677 -1.76943,0.677 -2.43926,0c-0.67971,-0.677 -0.67971,-1.79 0,-2.468c0.66983,-0.677 1.76943,-0.677 2.43926,0z" fill="#7166F0" id="svg_335"/>
    <path stroke="null" d="m1703.6626,386.259c0.66885,0.687 0.66885,1.79 0,2.468c-0.67971,0.677 -1.77042,0.677 -2.44025,0c-0.67873,-0.687 -0.67873,-1.791 0,-2.468c0.67971,-0.677 1.77042,-0.677 2.44025,0z" fill="#7166F0" id="svg_336"/>
    <path stroke="null" d="m1697.00181,393.004c0.67873,0.677 0.67873,1.79 0,2.467c-0.66983,0.678 -1.77042,0.678 -2.43926,0c-0.66983,-0.677 -0.66983,-1.79 0,-2.467c0.66885,-0.687 1.75955,-0.687 2.43926,0z" fill="#7166F0" id="svg_337"/>
    <path stroke="null" d="m1690.33508,399.739c0.67873,0.677 0.67873,1.79 0,2.467c-0.66983,0.678 -1.77042,0.678 -2.43926,0c-0.67971,-0.677 -0.67971,-1.79 0,-2.467c0.66885,-0.678 1.75955,-0.678 2.43926,0z" fill="#7166F0" id="svg_338"/>
    <path stroke="null" d="m1683.6654,406.484c0.66983,0.677 0.66983,1.79 0,2.467c-0.67873,0.678 -1.76943,0.678 -2.43926,0c-0.67971,-0.677 -0.67971,-1.79 0,-2.467c0.66983,-0.678 1.76943,-0.678 2.43926,0z" fill="#7166F0" id="svg_339"/>
    <path stroke="null" d="m1675.78151,416.209c-0.9514,0 -1.72201,-0.78 -1.72201,-1.742c0,-0.962 0.77061,-1.742 1.72201,-1.742c0.95041,0 1.72201,0.78 1.72201,1.742c0,0.962 -0.77159,1.742 -1.72201,1.742z" fill="#7166F0" id="svg_340"/>
    <path stroke="null" d="m1751.98152,347.494c0.67971,0.677 0.67971,1.79 0,2.467c-0.66983,0.678 -1.76943,0.678 -2.43926,0c-0.67971,-0.677 -0.67971,-1.79 0,-2.467c0.67971,-0.687 1.76943,-0.687 2.43926,0z" fill="#7166F0" id="svg_341"/>
    <path stroke="null" d="m1745.32073,354.238c0.66885,0.678 0.66885,1.791 0,2.468c-0.67971,0.677 -1.77042,0.677 -2.44025,0c-0.67873,-0.677 -0.67873,-1.79 0,-2.468c0.66983,-0.687 1.76054,-0.687 2.44025,0z" fill="#7166F0" id="svg_342"/>
    <path stroke="null" d="m1738.65401,360.973c0.67971,0.678 0.67971,1.791 0,2.468c-0.66983,0.677 -1.76943,0.677 -2.43926,0c-0.66983,-0.677 -0.66983,-1.79 0,-2.468c0.66983,-0.677 1.76943,-0.677 2.43926,0z" fill="#7166F0" id="svg_343"/>
    <path stroke="null" d="m1731.98531,367.718c0.67971,0.677 0.67971,1.79 0,2.468c-0.67873,0.687 -1.76943,0.687 -2.43926,0c-0.67971,-0.678 -0.67971,-1.791 0,-2.468c0.67873,-0.677 1.76943,-0.677 2.43926,0z" fill="#7166F0" id="svg_344"/>
    <path stroke="null" d="m1725.32945,374.463c0.66983,0.677 0.66983,1.79 0,2.468c-0.67873,0.677 -1.76943,0.677 -2.43926,0c-0.66983,-0.678 -0.66983,-1.791 0,-2.468c0.66983,-0.687 1.76054,-0.687 2.43926,0z" fill="#7166F0" id="svg_345"/>
    <path stroke="null" d="m1718.66372,381.208c0.67873,0.677 0.67873,1.79 0,2.467c-0.66983,0.678 -1.77042,0.678 -2.44025,0c-0.67873,-0.677 -0.67873,-1.79 0,-2.467c0.66983,-0.687 1.76054,-0.687 2.44025,0z" fill="#7166F0" id="svg_346"/>
    <path stroke="null" d="m1711.99403,387.943c0.66983,0.687 0.66983,1.79 0,2.467c-0.67873,0.678 -1.76943,0.678 -2.43926,0c-0.67971,-0.677 -0.67971,-1.79 0,-2.467c0.66983,-0.678 1.76943,-0.678 2.43926,0z" fill="#7166F0" id="svg_347"/>
    <path stroke="null" d="m1705.32632,394.688c0.67873,0.677 0.67873,1.79 0,2.467c-0.66983,0.678 -1.77042,0.678 -2.44025,0c-0.66885,-0.687 -0.66885,-1.79 0,-2.467c0.67971,-0.687 1.77042,-0.687 2.44025,0z" fill="#7166F0" id="svg_348"/>
    <path stroke="null" d="m1698.66651,401.432c0.67971,0.678 0.67971,1.79 0,2.468c-0.67873,0.687 -1.76943,0.687 -2.43926,0c-0.67873,-0.678 -0.67873,-1.79 0,-2.468c0.66983,-0.687 1.76054,-0.687 2.43926,0z" fill="#7166F0" id="svg_349"/>
    <path stroke="null" d="m1691.99781,408.167c0.66983,0.687 0.66983,1.79 0,2.468c-0.67971,0.677 -1.77042,0.677 -2.43926,0c-0.66983,-0.678 -0.66983,-1.79 0,-2.468c0.66885,-0.677 1.76943,-0.677 2.43926,0z" fill="#7166F0" id="svg_350"/>
    <path stroke="null" d="m1685.33109,414.912c0.67971,0.687 0.67971,1.79 0,2.467c-0.66885,0.678 -1.76943,0.678 -2.43926,0c-0.67873,-0.687 -0.67873,-1.79 0,-2.467c0.67971,-0.678 1.77042,-0.678 2.43926,0z" fill="#7166F0" id="svg_351"/>
    <path stroke="null" d="m1760.31394,349.177c0.67873,0.678 0.67873,1.791 0,2.468c-0.66983,0.687 -1.77042,0.687 -2.43926,0c-0.67971,-0.677 -0.67971,-1.79 0,-2.468c0.67873,-0.677 1.76943,-0.677 2.43926,0z" fill="#7166F0" id="svg_352"/>
    <path stroke="null" d="m1753.65216,355.922c0.66983,0.677 0.66983,1.79 0,2.468c-0.67873,0.677 -1.76943,0.677 -2.43926,0c-0.66983,-0.678 -0.66983,-1.791 0,-2.468c0.66983,-0.687 1.76054,-0.687 2.43926,0z" fill="#7166F0" id="svg_353"/>
    <path stroke="null" d="m1746.98938,362.667c0.66983,0.678 0.66983,1.79 0,2.468c-0.66983,0.677 -1.76943,0.677 -2.43926,0c-0.66983,-0.678 -0.66983,-1.79 0,-2.468c0.66983,-0.687 1.76943,-0.687 2.43926,0z" fill="#7166F0" id="svg_354"/>
    <path stroke="null" d="m1740.31772,369.402c0.67873,0.687 0.67873,1.79 0,2.468c-0.67971,0.677 -1.77042,0.677 -2.44025,0c-0.67873,-0.687 -0.67873,-1.791 0,-2.468c0.66983,-0.677 1.77042,-0.677 2.44025,0z" fill="#7166F0" id="svg_355"/>
    <path stroke="null" d="m1733.66187,376.147c0.66983,0.677 0.66983,1.79 0,2.467c-0.67971,0.687 -1.77042,0.687 -2.44025,0c-0.66885,-0.677 -0.66885,-1.79 0,-2.467c0.66983,-0.678 1.76054,-0.678 2.44025,0z" fill="#7166F0" id="svg_356"/>
    <path stroke="null" d="m1726.99514,382.892c0.67971,0.677 0.67971,1.79 0,2.467c-0.66983,0.687 -1.76943,0.687 -2.43926,0c-0.67971,-0.677 -0.67971,-1.79 0,-2.467c0.66983,-0.687 1.76054,-0.687 2.43926,0z" fill="#7166F0" id="svg_357"/>
    <path stroke="null" d="m1720.32645,389.627c0.66983,0.677 0.66983,1.79 0,2.467c-0.67971,0.678 -1.77042,0.678 -2.44025,0c-0.67873,-0.677 -0.67873,-1.79 0,-2.467c0.66983,-0.678 1.77042,-0.678 2.44025,0z" fill="#7166F0" id="svg_358"/>
    <path stroke="null" d="m1713.65775,396.371c0.67971,0.687 0.67971,1.791 0,2.468c-0.66983,0.677 -1.76943,0.677 -2.43926,0c-0.66983,-0.677 -0.66983,-1.79 0,-2.468c0.67873,-0.677 1.76943,-0.677 2.43926,0z" fill="#7166F0" id="svg_359"/>
    <path stroke="null" d="m1706.99893,403.116c0.67971,0.677 0.67971,1.79 0,2.468c-0.67971,0.687 -1.76943,0.687 -2.43926,0c-0.67971,-0.678 -0.67971,-1.791 0,-2.468c0.66983,-0.687 1.75955,-0.687 2.43926,0z" fill="#7166F0" id="svg_360"/>
    <path stroke="null" d="m1700.32924,409.861c0.66983,0.677 0.66983,1.79 0,2.467c-0.67873,0.687 -1.76943,0.687 -2.43926,0c-0.66983,-0.677 -0.66983,-1.79 0,-2.467c0.66983,-0.687 1.76054,-0.687 2.43926,0z" fill="#7166F0" id="svg_361"/>
    <path stroke="null" d="m1693.66351,416.596c0.67873,0.677 0.67873,1.79 0,2.467c-0.66983,0.678 -1.76943,0.678 -2.43926,0c-0.67971,-0.677 -0.67971,-1.79 0,-2.467c0.67873,-0.678 1.76943,-0.678 2.43926,0z" fill="#7166F0" id="svg_362"/>
    <path stroke="null" d="m1686.99975,423.341c0.66983,0.687 0.66983,1.79 0,2.467c-0.67873,0.678 -1.76943,0.678 -2.43926,0c-0.67971,-0.687 -0.67971,-1.79 0,-2.467c0.66983,-0.678 1.76054,-0.678 2.43926,0z" fill="#7166F0" id="svg_363"/>
    <path stroke="null" d="m1761.9905,357.606c0.66885,0.677 0.66885,1.79 0,2.467c-0.67971,0.687 -1.77042,0.687 -2.44025,0c-0.66983,-0.677 -0.66983,-1.79 0,-2.467c0.66983,-0.678 1.76054,-0.678 2.44025,0z" fill="#7166F0" id="svg_364"/>
    <path stroke="null" d="m1755.32378,364.351c0.67971,0.677 0.67971,1.79 0,2.467c-0.66983,0.678 -1.76943,0.678 -2.43926,0c-0.67971,-0.677 -0.67971,-1.79 0,-2.467c0.67873,-0.678 1.76054,-0.688 2.43926,0z" fill="#7166F0" id="svg_365"/>
    <path stroke="null" d="m1748.64915,371.086c0.67971,0.677 0.67971,1.79 0,2.467c-0.67873,0.678 -1.76943,0.678 -2.43926,0c-0.67971,-0.677 -0.67971,-1.79 0,-2.467c0.66983,-0.678 1.76943,-0.678 2.43926,0z" fill="#7166F0" id="svg_366"/>
    <path stroke="null" d="m1741.98243,377.83c0.67971,0.678 0.67971,1.791 0,2.468c-0.66983,0.677 -1.76943,0.677 -2.43926,0c-0.66983,-0.687 -0.66983,-1.79 0,-2.468c0.67873,-0.677 1.76943,-0.677 2.43926,0z" fill="#7166F0" id="svg_367"/>
    <path stroke="null" d="m1735.32756,384.575c0.67873,0.678 0.67873,1.791 0,2.468c-0.66983,0.687 -1.77042,0.687 -2.43926,0c-0.67971,-0.677 -0.67971,-1.79 0,-2.468c0.66885,-0.687 1.75955,-0.687 2.43926,0z" fill="#7166F0" id="svg_368"/>
    <path stroke="null" d="m1728.65787,391.32c0.66983,0.677 0.66983,1.79 0,2.468c-0.67873,0.677 -1.76943,0.677 -2.43926,0c-0.67971,-0.678 -0.67971,-1.791 0,-2.468c0.66983,-0.687 1.76943,-0.687 2.43926,0z" fill="#7166F0" id="svg_369"/>
    <path stroke="null" d="m1721.99016,398.055c0.67873,0.677 0.67873,1.79 0,2.468c-0.66983,0.677 -1.77042,0.677 -2.43926,0c-0.66983,-0.678 -0.66983,-1.791 0,-2.468c0.67873,-0.677 1.76943,-0.677 2.43926,0z" fill="#7166F0" id="svg_370"/>
    <path stroke="null" d="m1715.33134,404.8c0.67873,0.687 0.67873,1.79 0,2.467c-0.67971,0.678 -1.77042,0.678 -2.44025,0c-0.67873,-0.687 -0.67873,-1.79 0,-2.467c0.66983,-0.678 1.76054,-0.678 2.44025,0z" fill="#7166F0" id="svg_371"/>
    <path stroke="null" d="m1708.66166,411.545c0.66983,0.677 0.66983,1.79 0,2.467c-0.67873,0.687 -1.76943,0.687 -2.43926,0c-0.66983,-0.677 -0.66983,-1.79 0,-2.467c0.66983,-0.687 1.76054,-0.687 2.43926,0z" fill="#7166F0" id="svg_372"/>
    <path stroke="null" d="m1701.99395,418.28c0.67873,0.677 0.67873,1.79 0,2.467c-0.66983,0.677 -1.77042,0.677 -2.44025,0c-0.67873,-0.677 -0.67873,-1.79 0,-2.467c0.66983,-0.678 1.77042,-0.678 2.44025,0z" fill="#7166F0" id="svg_373"/>
    <path stroke="null" d="m1695.32821,425.024c0.66983,0.687 0.66983,1.79 0,2.468c-0.67971,0.677 -1.76943,0.677 -2.43926,0c-0.67971,-0.678 -0.67971,-1.79 0,-2.468c0.67873,-0.677 1.76943,-0.677 2.43926,0z" fill="#7166F0" id="svg_374"/>
   </g>
   <path stroke="null" d="m1851.1594,206.754l-35.34736,35.754l-35.34776,-35.754l35.34776,-35.754l35.34736,35.754zm-35.34736,13.677l13.52175,-13.677l-13.52175,-13.677l-13.52185,13.677l13.52185,13.677z" fill="#E6E4FF" id="svg_375"/>
   <path stroke="null" d="m1636.24157,56c11.74086,0 21.27858,9.6621 21.27858,21.5374c0,11.8754 -9.55254,21.5375 -21.27858,21.5375c-11.73987,0 -21.29241,-9.6621 -21.29241,-21.5375c0,-11.8753 9.55254,-21.5374 21.29241,-21.5374zm0,27.4538c3.22666,0 5.84968,-2.6531 5.84968,-5.9306c0,-3.2632 -2.62302,-5.9306 -5.84968,-5.9306c-3.22567,0 -5.86352,2.6532 -5.86352,5.9306c0,3.2775 2.63784,5.9306 5.86352,5.9306z" fill="#E6E4FF" id="svg_376"/>
  </g>
 </g>

</svg>